Forvertz.ufo
<glyph name="exclam" format="2">
  <advance width="252"/>
  <unicode hex="0021"/>
  <outline>
    <contour>
      <point x="218" y="185" type="line"/>
      <point x="218" y="0" type="line"/>
      <point x="32" y="0" type="line"/>
      <point x="32" y="185" type="line"/>
    </contour>
    <contour>
      <point x="218" y="668" type="line"/>
      <point x="218" y="241" type="line"/>
      <point x="32" y="241" type="line"/>
      <point x="32" y="668" type="line"/>
    </contour>
  </outline>
</glyph>
<glyph name="quotedbl" format="2">
  <advance width="482"/>
  <unicode hex="0022"/>
  <outline>
    <contour>
      <point x="218" y="668" type="line"/>
      <point x="218" y="356" type="line"/>
      <point x="32" y="356" type="line"/>
      <point x="32" y="668" type="line"/>
    </contour>
    <contour>
      <point x="449" y="668" type="line"/>
      <point x="449" y="356" type="line"/>
      <point x="263" y="356" type="line"/>
      <point x="263" y="668" type="line"/>
    </contour>
  </outline>
</glyph>
<glyph name="numbersign" format="2">
  <advance width="797"/>
  <unicode hex="0023"/>
  <outline>
    <contour>
      <point x="309" y="289" type="line"/>
      <point x="460" y="289" type="line"/>
      <point x="482" y="393" type="line"/>
      <point x="331" y="393" type="line"/>
    </contour>
    <contour>
      <point x="693" y="133" type="line"/>
      <point x="583" y="133" type="line"/>
      <point x="555" y="0" type="line"/>
      <point x="399" y="0" type="line"/>
      <point x="427" y="133" type="line"/>
      <point x="276" y="133" type="line"/>
      <point x="248" y="0" type="line"/>
      <point x="94" y="0" type="line"/>
      <point x="122" y="133" type="line"/>
      <point x="25" y="133" type="line"/>
      <point x="58" y="289" type="line"/>
      <point x="155" y="289" type="line"/>
      <point x="177" y="393" type="line"/>
      <point x="80" y="393" type="line"/>
      <point x="113" y="549" type="line"/>
      <point x="210" y="549" type="line"/>
      <point x="235" y="668" type="line"/>
      <point x="389" y="668" type="line"/>
      <point x="364" y="549" type="line"/>
      <point x="515" y="549" type="line"/>
      <point x="540" y="668" type="line"/>
      <point x="696" y="668" type="line"/>
      <point x="671" y="549" type="line"/>
      <point x="781" y="549" type="line"/>
      <point x="748" y="393" type="line"/>
      <point x="638" y="393" type="line"/>
      <point x="616" y="289" type="line"/>
      <point x="726" y="289" type="line"/>
    </contour>
  </outline>
</glyph>
<glyph name="percent" format="2">
  <advance width="1307"/>
  <unicode hex="0025"/>
  <outline>
    <contour>
      <point x="1007" y="669" type="line"/>
      <point x="509" y="0" type="line"/>
      <point x="284" y="0" type="line"/>
      <point x="782" y="669" type="line"/>
    </contour>
    <contour>
      <point x="33" y="463" type="qcurve" smooth="yes"/>
      <point x="33" y="505"/>
      <point x="58" y="579"/>
      <point x="105" y="635"/>
      <point x="174" y="668"/>
      <point x="219" y="668" type="qcurve" smooth="yes"/>
      <point x="315" y="668" type="line" smooth="yes"/>
      <point x="360" y="668"/>
      <point x="429" y="635"/>
      <point x="476" y="579"/>
      <point x="501" y="505"/>
      <point x="501" y="463" type="qcurve" smooth="yes"/>
      <point x="501" y="419"/>
      <point x="481" y="338"/>
      <point x="436" y="277"/>
      <point x="365" y="240"/>
      <point x="315" y="240" type="qcurve" smooth="yes"/>
      <point x="219" y="240" type="line" smooth="yes"/>
      <point x="169" y="240"/>
      <point x="98" y="277"/>
      <point x="53" y="338"/>
      <point x="33" y="419"/>
    </contour>
    <contour>
      <point x="315" y="426" type="line"/>
      <point x="315" y="482" type="line"/>
      <point x="219" y="482" type="line"/>
      <point x="219" y="426" type="line"/>
    </contour>
    <contour>
      <point x="785" y="223" type="qcurve" smooth="yes"/>
      <point x="785" y="265"/>
      <point x="810" y="339"/>
      <point x="857" y="395"/>
      <point x="926" y="428"/>
      <point x="971" y="428" type="qcurve" smooth="yes"/>
      <point x="1082" y="428" type="line" smooth="yes"/>
      <point x="1127" y="428"/>
      <point x="1196" y="395"/>
      <point x="1243" y="339"/>
      <point x="1268" y="265"/>
      <point x="1268" y="223" type="qcurve" smooth="yes"/>
      <point x="1268" y="179"/>
      <point x="1248" y="98"/>
      <point x="1203" y="37"/>
      <point x="1132" y="0"/>
      <point x="1082" y="0" type="qcurve" smooth="yes"/>
      <point x="971" y="0" type="line" smooth="yes"/>
      <point x="921" y="0"/>
      <point x="850" y="37"/>
      <point x="805" y="98"/>
      <point x="785" y="179"/>
    </contour>
    <contour>
      <point x="1082" y="186" type="line"/>
      <point x="1082" y="242" type="line"/>
      <point x="971" y="242" type="line"/>
      <point x="971" y="186" type="line"/>
    </contour>
  </outline>
</glyph>
<glyph name="ampersand" format="2">
  <advance width="895"/>
  <unicode hex="0026"/>
  <outline>
    <contour>
      <point x="627" y="487" type="line"/>
      <point x="812" y="488" type="line"/>
      <point x="812" y="427" type="line"/>
      <point x="864" y="427" type="line"/>
      <point x="864" y="241" type="line"/>
      <point x="813" y="241" type="line"/>
      <point x="813" y="0" type="line"/>
      <point x="213" y="0" type="line" smooth="yes"/>
      <point x="163" y="0"/>
      <point x="92" y="37"/>
      <point x="47" y="98"/>
      <point x="27" y="179"/>
      <point x="27" y="223" type="qcurve"/>
      <point x="29" y="241" type="line"/>
      <point x="27" y="241" type="line"/>
      <point x="35" y="293" type="line"/>
      <point x="70" y="246"/>
      <point x="155" y="204"/>
      <point x="213" y="204" type="qcurve"/>
      <point x="213" y="185" type="line"/>
      <point x="627" y="185" type="line"/>
      <point x="627" y="241" type="line"/>
      <point x="213" y="241" type="line" smooth="yes"/>
      <point x="168" y="241"/>
      <point x="133" y="257" type="qcurve"/>
      <point x="99" y="274"/>
      <point x="51" y="330"/>
      <point x="27" y="404"/>
      <point x="27" y="445" type="qcurve" smooth="yes"/>
      <point x="27" y="489"/>
      <point x="47" y="570"/>
      <point x="92" y="631"/>
      <point x="163" y="668"/>
      <point x="213" y="668" type="qcurve" smooth="yes"/>
      <point x="581" y="668" type="line"/>
      <point x="581" y="483" type="line"/>
      <point x="213" y="483" type="line"/>
      <point x="213" y="427" type="line"/>
      <point x="627" y="427" type="line"/>
    </contour>
  </outline>
</glyph>
<glyph name="quotesingle" format="2">
  <advance width="260"/>
  <unicode hex="0027"/>
  <outline>
    <contour>
      <point x="218" y="668" type="line"/>
      <point x="218" y="356" type="line"/>
      <point x="32" y="356" type="line"/>
      <point x="32" y="668" type="line"/>
    </contour>
  </outline>
</glyph>
<glyph name="parenleft" format="2">
  <advance width="360"/>
  <unicode hex="0028"/>
  <outline>
    <contour>
      <point x="338" y="-60" type="qcurve"/>
      <point x="187" y="-149" type="line"/>
      <point x="151" y="-97"/>
      <point x="89" y="20"/>
      <point x="45" y="143"/>
      <point x="20" y="272"/>
      <point x="20" y="336" type="qcurve" smooth="yes"/>
      <point x="20" y="468"/>
      <point x="108" y="707"/>
      <point x="189" y="810" type="qcurve"/>
      <point x="335" y="716" type="line"/>
      <point x="303" y="681"/>
      <point x="253" y="587"/>
      <point x="218" y="485"/>
      <point x="199" y="380"/>
      <point x="199" y="333" type="qcurve" smooth="yes"/>
      <point x="199" y="225"/>
      <point x="278" y="27"/>
    </contour>
  </outline>
</glyph>
<glyph name="parenright" format="2">
  <advance width="360"/>
  <unicode hex="0029"/>
  <outline>
    <contour>
      <point x="20" y="-60" type="line"/>
      <point x="80" y="27"/>
      <point x="159" y="225"/>
      <point x="159" y="333" type="qcurve" smooth="yes"/>
      <point x="159" y="380"/>
      <point x="140" y="485"/>
      <point x="105" y="587"/>
      <point x="55" y="681"/>
      <point x="23" y="716" type="qcurve"/>
      <point x="169" y="810" type="line"/>
      <point x="250" y="707"/>
      <point x="338" y="468"/>
      <point x="338" y="336" type="qcurve" smooth="yes"/>
      <point x="338" y="272"/>
      <point x="313" y="143"/>
      <point x="269" y="20"/>
      <point x="207" y="-97"/>
      <point x="171" y="-149" type="qcurve"/>
    </contour>
  </outline>
</glyph>
<glyph name="asterisk" format="2">
  <advance width="464"/>
  <unicode hex="002A"/>
  <outline>
    <contour>
      <point x="425" y="524" type="line"/>
      <point x="336" y="469" type="line"/>
      <point x="425" y="414" type="line"/>
      <point x="364" y="316" type="line"/>
      <point x="283" y="365" type="line"/>
      <point x="283" y="271" type="line"/>
      <point x="167" y="271" type="line"/>
      <point x="167" y="365" type="line"/>
      <point x="87" y="316" type="line"/>
      <point x="26" y="414" type="line"/>
      <point x="115" y="469" type="line"/>
      <point x="26" y="524" type="line"/>
      <point x="87" y="623" type="line"/>
      <point x="167" y="573" type="line"/>
      <point x="167" y="668" type="line"/>
      <point x="283" y="668" type="line"/>
      <point x="283" y="573" type="line"/>
      <point x="364" y="623" type="line"/>
    </contour>
  </outline>
</glyph>
<glyph name="plus" format="2">
  <advance width="573"/>
  <unicode hex="002B"/>
  <outline>
    <contour>
      <point x="369" y="628" type="line"/>
      <point x="369" y="426" type="line"/>
      <point x="534" y="426" type="line"/>
      <point x="534" y="248" type="line"/>
      <point x="369" y="248" type="line"/>
      <point x="369" y="53" type="line"/>
      <point x="191" y="53" type="line"/>
      <point x="191" y="248" type="line"/>
      <point x="34" y="248" type="line"/>
      <point x="34" y="426" type="line"/>
      <point x="191" y="426" type="line"/>
      <point x="191" y="628" type="line"/>
    </contour>
  </outline>
</glyph>
<glyph name="hyphen" format="2">
  <advance width="568"/>
  <unicode hex="002D"/>
  <outline>
    <contour>
      <point x="534" y="229" type="line"/>
      <point x="32" y="229" type="line"/>
      <point x="32" y="415" type="line"/>
      <point x="534" y="415" type="line"/>
    </contour>
  </outline>
</glyph>
<glyph name="period" format="2">
  <advance width="276"/>
  <unicode hex="002E"/>
  <outline>
    <contour>
      <point x="41" y="97" type="qcurve" smooth="yes"/>
      <point x="41" y="138"/>
      <point x="97" y="195"/>
      <point x="138" y="195" type="qcurve" smooth="yes"/>
      <point x="179" y="195"/>
      <point x="236" y="138"/>
      <point x="236" y="97" type="qcurve" smooth="yes"/>
      <point x="236" y="56"/>
      <point x="179" y="0"/>
      <point x="138" y="0" type="qcurve" smooth="yes"/>
      <point x="97" y="0"/>
      <point x="41" y="56"/>
    </contour>
  </outline>
</glyph>
<glyph name="slash" format="2">
  <advance width="764"/>
  <unicode hex="002F"/>
  <outline>
    <contour>
      <point x="712" y="735" type="line"/>
      <point x="206" y="-74" type="line"/>
      <point x="20" y="-74" type="line"/>
      <point x="526" y="735" type="line"/>
    </contour>
  </outline>
</glyph>
<glyph name="one" format="2">
  <advance width="328"/>
  <unicode hex="0031"/>
  <outline>
    <contour>
      <point x="34" y="483" type="line"/>
      <point x="34" y="669" type="line"/>
      <point x="296" y="669" type="line"/>
      <point x="296" y="0" type="line"/>
      <point x="110" y="0" type="line"/>
      <point x="110" y="483" type="line"/>
    </contour>
  </outline>
</glyph>
<glyph name="two" format="2">
  <advance width="841"/>
  <unicode hex="0032"/>
  <outline>
    <contour>
      <point x="625" y="669" type="line" smooth="yes"/>
      <point x="675" y="669"/>
      <point x="746" y="632"/>
      <point x="791" y="571"/>
      <point x="811" y="490"/>
      <point x="811" y="446" type="qcurve" smooth="yes"/>
      <point x="811" y="404"/>
      <point x="786" y="330"/>
      <point x="739" y="274"/>
      <point x="670" y="241"/>
      <point x="625" y="241" type="qcurve" smooth="yes"/>
      <point x="217" y="241" type="line"/>
      <point x="217" y="0" type="line"/>
      <point x="31" y="0" type="line"/>
      <point x="31" y="241" type="line" smooth="yes"/>
      <point x="31" y="291"/>
      <point x="67" y="362"/>
      <point x="129" y="407"/>
      <point x="210" y="427"/>
      <point x="254" y="427" type="qcurve" smooth="yes"/>
      <point x="625" y="427" type="line"/>
      <point x="625" y="483" type="line"/>
      <point x="31" y="483" type="line"/>
      <point x="31" y="669" type="line"/>
    </contour>
    <contour>
      <point x="811" y="186" type="line"/>
      <point x="811" y="0" type="line"/>
      <point x="254" y="0" type="line"/>
      <point x="254" y="186" type="line"/>
    </contour>
  </outline>
</glyph>
<glyph name="three" format="2">
  <advance width="888"/>
  <unicode hex="0033"/>
  <outline>
    <contour>
      <point x="852" y="483" type="qcurve" smooth="yes"/>
      <point x="852" y="428" type="line" smooth="yes"/>
      <point x="852" y="399"/>
      <point x="845" y="375" type="qcurve"/>
      <point x="810" y="423"/>
      <point x="725" y="465"/>
      <point x="666" y="465" type="qcurve"/>
      <point x="666" y="483" type="line"/>
      <point x="35" y="483" type="line"/>
      <point x="35" y="669" type="line"/>
      <point x="666" y="669" type="line" smooth="yes"/>
      <point x="705" y="669"/>
      <point x="772" y="640"/>
      <point x="823" y="589"/>
      <point x="852" y="522"/>
    </contour>
    <contour>
      <point x="666" y="428" type="line" smooth="yes"/>
      <point x="704" y="428"/>
      <point x="771" y="398"/>
      <point x="822" y="347"/>
      <point x="852" y="280"/>
      <point x="852" y="242" type="qcurve" smooth="yes"/>
      <point x="852" y="186" type="line" smooth="yes"/>
      <point x="852" y="147"/>
      <point x="823" y="80"/>
      <point x="772" y="29"/>
      <point x="705" y="0"/>
      <point x="666" y="0" type="qcurve" smooth="yes"/>
      <point x="35" y="0" type="line"/>
      <point x="35" y="186" type="line"/>
      <point x="666" y="186" type="line"/>
      <point x="666" y="242" type="line"/>
      <point x="220" y="242" type="line"/>
      <point x="220" y="428" type="line"/>
    </contour>
  </outline>
</glyph>
<glyph name="four" format="2">
  <advance width="774"/>
  <unicode hex="0034"/>
  <outline>
    <contour>
      <point x="737" y="0" type="line"/>
      <point x="551" y="0" type="line"/>
      <point x="551" y="668" type="line"/>
      <point x="737" y="668" type="line"/>
    </contour>
    <contour>
      <point x="514" y="414" type="line"/>
      <point x="514" y="228" type="line"/>
      <point x="365" y="228" type="line" smooth="yes"/>
      <point x="296" y="228"/>
      <point x="175" y="281"/>
      <point x="84" y="372"/>
      <point x="31" y="493"/>
      <point x="31" y="562" type="qcurve" smooth="yes"/>
      <point x="31" y="668" type="line"/>
      <point x="217" y="668" type="line"/>
      <point x="217" y="600"/>
      <point x="229" y="510"/>
      <point x="255" y="453"/>
      <point x="300" y="425"/>
      <point x="366" y="414"/>
      <point x="411" y="414" type="qcurve" smooth="yes"/>
      <point x="418" y="414" type="line"/>
      <point x="420" y="414"/>
      <point x="422" y="414" type="qcurve"/>
      <point x="431" y="414" type="line"/>
      <point x="432" y="414"/>
      <point x="434" y="414" type="qcurve"/>
      <point x="437" y="414" type="line"/>
      <point x="438" y="414"/>
      <point x="440" y="414" type="qcurve"/>
      <point x="444" y="414" type="line" smooth="yes"/>
      <point x="448" y="414"/>
      <point x="452" y="414" type="qcurve" smooth="yes"/>
      <point x="455" y="414" type="line"/>
      <point x="457" y="414"/>
      <point x="458" y="414" type="qcurve"/>
      <point x="496" y="414" type="line" smooth="yes"/>
      <point x="500" y="414"/>
      <point x="503" y="414" type="qcurve" smooth="yes"/>
    </contour>
  </outline>
</glyph>
<glyph name="five" format="2">
  <advance width="851"/>
  <unicode hex="0035"/>
  <outline>
    <contour>
      <point x="816" y="669" type="line"/>
      <point x="816" y="483" type="line"/>
      <point x="258" y="483" type="line"/>
      <point x="258" y="669" type="line"/>
    </contour>
    <contour>
      <point x="816" y="223" type="qcurve" smooth="yes"/>
      <point x="816" y="179"/>
      <point x="796" y="98"/>
      <point x="751" y="37"/>
      <point x="680" y="0"/>
      <point x="630" y="0" type="qcurve" smooth="yes"/>
      <point x="35" y="0" type="line"/>
      <point x="35" y="186" type="line"/>
      <point x="630" y="186" type="line"/>
      <point x="630" y="242" type="line"/>
      <point x="35" y="242" type="line"/>
      <point x="35" y="669" type="line"/>
      <point x="221" y="669" type="line"/>
      <point x="221" y="428" type="line"/>
      <point x="630" y="428" type="line" smooth="yes"/>
      <point x="675" y="428"/>
      <point x="744" y="395"/>
      <point x="791" y="339"/>
      <point x="816" y="265"/>
    </contour>
  </outline>
</glyph>
<glyph name="six" format="2">
  <advance width="888"/>
  <unicode hex="0036"/>
  <outline>
    <contour>
      <point x="853" y="223" type="qcurve" smooth="yes"/>
      <point x="853" y="179"/>
      <point x="833" y="98"/>
      <point x="788" y="36"/>
      <point x="717" y="0"/>
      <point x="667" y="0" type="qcurve" smooth="yes"/>
      <point x="221" y="0" type="line" smooth="yes"/>
      <point x="183" y="0"/>
      <point x="116" y="30"/>
      <point x="65" y="81"/>
      <point x="36" y="148"/>
      <point x="36" y="186" type="qcurve" smooth="yes"/>
      <point x="36" y="483" type="line" smooth="yes"/>
      <point x="36" y="521"/>
      <point x="65" y="588"/>
      <point x="116" y="639"/>
      <point x="183" y="669"/>
      <point x="221" y="669" type="qcurve" smooth="yes"/>
      <point x="853" y="669" type="line"/>
      <point x="853" y="483" type="line"/>
      <point x="221" y="483" type="line"/>
      <point x="221" y="186" type="line"/>
      <point x="667" y="186" type="line"/>
      <point x="667" y="242" type="line"/>
      <point x="259" y="242" type="line"/>
      <point x="259" y="427" type="line"/>
      <point x="667" y="427" type="line" smooth="yes"/>
      <point x="712" y="427"/>
      <point x="781" y="394"/>
      <point x="828" y="339"/>
      <point x="853" y="265"/>
    </contour>
  </outline>
</glyph>
<glyph name="seven" format="2">
  <advance width="794"/>
  <unicode hex="0037"/>
  <outline>
    <contour>
      <point x="522" y="669" type="line"/>
      <point x="426" y="483" type="line"/>
      <point x="30" y="483" type="line"/>
      <point x="30" y="669" type="line"/>
    </contour>
    <contour>
      <point x="773" y="669" type="line"/>
      <point x="426" y="0" type="line"/>
      <point x="217" y="0" type="line"/>
      <point x="564" y="669" type="line"/>
    </contour>
  </outline>
</glyph>
<glyph name="eight" format="2">
  <advance width="838"/>
  <unicode hex="0038"/>
  <outline>
    <contour>
      <point x="213" y="204" type="qcurve"/>
      <point x="213" y="185" type="line"/>
      <point x="622" y="185" type="line"/>
      <point x="622" y="241" type="line"/>
      <point x="213" y="241" type="line" smooth="yes"/>
      <point x="168" y="241"/>
      <point x="99" y="274"/>
      <point x="51" y="330"/>
      <point x="27" y="404"/>
      <point x="27" y="445" type="qcurve" smooth="yes"/>
      <point x="27" y="489"/>
      <point x="47" y="570"/>
      <point x="92" y="631"/>
      <point x="163" y="668"/>
      <point x="213" y="668" type="qcurve" smooth="yes"/>
      <point x="622" y="668" type="line" smooth="yes"/>
      <point x="672" y="668"/>
      <point x="743" y="631"/>
      <point x="788" y="570"/>
      <point x="808" y="489"/>
      <point x="808" y="445" type="qcurve" smooth="yes"/>
      <point x="808" y="427"/>
      <point x="805" y="392"/>
      <point x="800" y="375" type="qcurve"/>
      <point x="765" y="422"/>
      <point x="680" y="464"/>
      <point x="622" y="464" type="qcurve"/>
      <point x="622" y="483" type="line"/>
      <point x="213" y="483" type="line"/>
      <point x="213" y="427" type="line"/>
      <point x="585" y="427" type="line" smooth="yes"/>
      <point x="701" y="427"/>
      <point x="808" y="320"/>
      <point x="808" y="204" type="qcurve" smooth="yes"/>
      <point x="808" y="162"/>
      <point x="783" y="88"/>
      <point x="736" y="33"/>
      <point x="667" y="0"/>
      <point x="622" y="0" type="qcurve" smooth="yes"/>
      <point x="213" y="0" type="line" smooth="yes"/>
      <point x="163" y="0"/>
      <point x="92" y="37"/>
      <point x="47" y="98"/>
      <point x="27" y="179"/>
      <point x="27" y="223" type="qcurve"/>
      <point x="29" y="241" type="line"/>
      <point x="27" y="241" type="line"/>
      <point x="35" y="293" type="line"/>
      <point x="70" y="246"/>
      <point x="155" y="204"/>
    </contour>
  </outline>
</glyph>
<glyph name="nine" format="2">
  <advance width="888"/>
  <unicode hex="0039"/>
  <outline>
    <contour>
      <point x="222" y="427" type="line"/>
      <point x="631" y="427" type="line"/>
      <point x="631" y="241" type="line"/>
      <point x="222" y="241" type="line" smooth="yes"/>
      <point x="177" y="241"/>
      <point x="108" y="274"/>
      <point x="61" y="329"/>
      <point x="36" y="403"/>
      <point x="36" y="445" type="qcurve" smooth="yes"/>
      <point x="36" y="489"/>
      <point x="56" y="570"/>
      <point x="101" y="631"/>
      <point x="171" y="668"/>
      <point x="222" y="668" type="qcurve" smooth="yes"/>
      <point x="667" y="668" type="line" smooth="yes"/>
      <point x="705" y="668"/>
      <point x="772" y="639"/>
      <point x="823" y="588"/>
      <point x="853" y="521"/>
      <point x="853" y="483" type="qcurve" smooth="yes"/>
      <point x="853" y="185" type="line" smooth="yes"/>
      <point x="853" y="146"/>
      <point x="824" y="79"/>
      <point x="773" y="29"/>
      <point x="705" y="0"/>
      <point x="667" y="0" type="qcurve" smooth="yes"/>
      <point x="36" y="0" type="line"/>
      <point x="36" y="185" type="line"/>
      <point x="667" y="185" type="line"/>
      <point x="667" y="483" type="line"/>
      <point x="222" y="483" type="line"/>
    </contour>
  </outline>
</glyph>
<glyph name="colon" format="2">
  <advance width="276"/>
  <unicode hex="003A"/>
  <outline>
    <contour>
      <point x="41" y="570" type="qcurve" smooth="yes"/>
      <point x="41" y="611"/>
      <point x="97" y="668"/>
      <point x="138" y="668" type="qcurve" smooth="yes"/>
      <point x="179" y="668"/>
      <point x="236" y="611"/>
      <point x="236" y="570" type="qcurve" smooth="yes"/>
      <point x="236" y="529"/>
      <point x="179" y="473"/>
      <point x="138" y="473" type="qcurve" smooth="yes"/>
      <point x="97" y="473"/>
      <point x="41" y="529"/>
    </contour>
    <contour>
      <point x="41" y="97" type="qcurve" smooth="yes"/>
      <point x="41" y="138"/>
      <point x="97" y="195"/>
      <point x="138" y="195" type="qcurve" smooth="yes"/>
      <point x="179" y="195"/>
      <point x="236" y="138"/>
      <point x="236" y="97" type="qcurve" smooth="yes"/>
      <point x="236" y="56"/>
      <point x="179" y="0"/>
      <point x="138" y="0" type="qcurve" smooth="yes"/>
      <point x="97" y="0"/>
      <point x="41" y="56"/>
    </contour>
  </outline>
</glyph>
<glyph name="semicolon" format="2">
  <advance width="276"/>
  <unicode hex="003B"/>
  <outline>
    <contour>
      <point x="36" y="570" type="qcurve" smooth="yes"/>
      <point x="36" y="611"/>
      <point x="92" y="668"/>
      <point x="133" y="668" type="qcurve" smooth="yes"/>
      <point x="174" y="668"/>
      <point x="231" y="611"/>
      <point x="231" y="570" type="qcurve" smooth="yes"/>
      <point x="231" y="529"/>
      <point x="174" y="473"/>
      <point x="133" y="473" type="qcurve" smooth="yes"/>
      <point x="92" y="473"/>
      <point x="36" y="529"/>
    </contour>
    <contour>
      <point x="236" y="105" type="qcurve"/>
      <point x="243" y="81"/>
      <point x="243" y="58" type="qcurve" smooth="yes"/>
      <point x="243" y="40"/>
      <point x="230" y="-17"/>
      <point x="215" y="-48" type="qcurve" smooth="yes"/>
      <point x="197" y="-85"/>
      <point x="170" y="-117" type="qcurve"/>
      <point x="90" y="-90" type="line"/>
      <point x="116" y="-59" type="line"/>
      <point x="116" y="-56"/>
      <point x="116" y="-53" type="qcurve" smooth="yes"/>
      <point x="116" y="-40"/>
      <point x="107" y="-13"/>
      <point x="99" y="-2" type="qcurve" smooth="yes"/>
      <point x="90" y="10"/>
      <point x="79" y="20" type="qcurve" smooth="yes"/>
      <point x="62" y="34"/>
      <point x="41" y="74"/>
      <point x="41" y="97" type="qcurve" smooth="yes"/>
      <point x="41" y="138"/>
      <point x="97" y="195"/>
      <point x="138" y="195" type="qcurve" smooth="yes"/>
      <point x="157" y="195"/>
      <point x="191" y="181"/>
      <point x="218" y="157"/>
      <point x="234" y="124"/>
    </contour>
  </outline>
</glyph>
<glyph name="less" format="2">
  <advance width="605"/>
  <unicode hex="003C"/>
  <outline>
    <contour>
      <point x="21" y="380" type="line"/>
      <point x="514" y="637" type="line"/>
      <point x="580" y="516" type="line"/>
      <point x="193" y="318" type="line"/>
      <point x="580" y="121" type="line"/>
      <point x="514" y="0" type="line"/>
      <point x="21" y="257" type="line"/>
    </contour>
  </outline>
</glyph>
<glyph name="equal" format="2">
  <advance width="746"/>
  <unicode hex="003D"/>
  <outline>
    <contour>
      <point x="700" y="373" type="line"/>
      <point x="41" y="373" type="line"/>
      <point x="41" y="559" type="line"/>
      <point x="700" y="559" type="line"/>
    </contour>
    <contour>
      <point x="700" y="97" type="line"/>
      <point x="41" y="97" type="line"/>
      <point x="41" y="283" type="line"/>
      <point x="700" y="283" type="line"/>
    </contour>
  </outline>
</glyph>
<glyph name="greater" format="2">
  <advance width="605"/>
  <unicode hex="003E"/>
  <outline>
    <contour>
      <point x="580" y="257" type="line"/>
      <point x="87" y="0" type="line"/>
      <point x="21" y="121" type="line"/>
      <point x="408" y="318" type="line"/>
      <point x="21" y="516" type="line"/>
      <point x="87" y="637" type="line"/>
      <point x="580" y="380" type="line"/>
    </contour>
  </outline>
</glyph>
<glyph name="question" format="2">
  <advance width="805"/>
  <unicode hex="003F"/>
  <outline>
    <contour>
      <point x="586" y="427" type="qcurve"/>
      <point x="586" y="483" type="line"/>
      <point x="29" y="483" type="line"/>
      <point x="29" y="669" type="line"/>
      <point x="586" y="669" type="line" smooth="yes"/>
      <point x="625" y="669"/>
      <point x="692" y="640"/>
      <point x="743" y="589"/>
      <point x="772" y="522"/>
      <point x="772" y="483" type="qcurve" smooth="yes"/>
      <point x="772" y="427" type="line" smooth="yes"/>
      <point x="772" y="389"/>
      <point x="743" y="321"/>
      <point x="692" y="271"/>
      <point x="624" y="242"/>
      <point x="586" y="242" type="qcurve" smooth="yes"/>
      <point x="252" y="242" type="line"/>
      <point x="252" y="292"/>
      <point x="282" y="359"/>
      <point x="334" y="400"/>
      <point x="401" y="420"/>
      <point x="471" y="428"/>
      <point x="505" y="428" type="qcurve" smooth="yes"/>
      <point x="509" y="428"/>
      <point x="551" y="427"/>
    </contour>
    <contour>
      <point x="438" y="186" type="line"/>
      <point x="438" y="0" type="line"/>
      <point x="252" y="0" type="line"/>
      <point x="252" y="186" type="line"/>
    </contour>
  </outline>
</glyph>
<glyph name="at" format="2">
  <advance width="833"/>
  <unicode hex="0040"/>
  <outline>
    <contour>
      <point x="59" y="387" type="qcurve" smooth="yes"/>
      <point x="74" y="422"/>
      <point x="116" y="484"/>
      <point x="143" y="510" type="qcurve" smooth="yes"/>
      <point x="197" y="564"/>
      <point x="267" y="594" type="qcurve" smooth="yes"/>
      <point x="339" y="624"/>
      <point x="418" y="624" type="qcurve" smooth="yes"/>
      <point x="498" y="624"/>
      <point x="570" y="594" type="qcurve" smooth="yes"/>
      <point x="641" y="563"/>
      <point x="694" y="510" type="qcurve" smooth="yes"/>
      <point x="746" y="458"/>
      <point x="777" y="387" type="qcurve" smooth="yes"/>
      <point x="808" y="313"/>
      <point x="808" y="235" type="qcurve" smooth="yes"/>
      <point x="808" y="157"/>
      <point x="777" y="83" type="qcurve"/>
      <point x="775" y="80"/>
      <point x="774" y="74"/>
      <point x="772" y="71" type="qcurve"/>
      <point x="608" y="71" type="line"/>
      <point x="608" y="72" type="line"/>
      <point x="318" y="72" type="line" smooth="yes"/>
      <point x="280" y="72"/>
      <point x="228" y="124"/>
      <point x="228" y="162" type="qcurve" smooth="yes"/>
      <point x="228" y="189" type="line" smooth="yes"/>
      <point x="228" y="207"/>
      <point x="242" y="240"/>
      <point x="267" y="264"/>
      <point x="300" y="279"/>
      <point x="318" y="279" type="qcurve" smooth="yes"/>
      <point x="484" y="279" type="line"/>
      <point x="493" y="268"/>
      <point x="504" y="237"/>
      <point x="506" y="223" type="qcurve" smooth="yes"/>
      <point x="509" y="206"/>
      <point x="510" y="189" type="qcurve"/>
      <point x="318" y="189" type="line"/>
      <point x="318" y="162" type="line"/>
      <point x="533" y="162" type="line"/>
      <point x="533" y="244" type="line"/>
      <point x="530" y="270"/>
      <point x="492" y="304"/>
      <point x="466" y="304" type="qcurve" smooth="yes"/>
      <point x="262" y="304" type="line"/>
      <point x="262" y="393" type="line"/>
      <point x="466" y="393" type="line" smooth="yes"/>
      <point x="497" y="393"/>
      <point x="553" y="372"/>
      <point x="596" y="333"/>
      <point x="622" y="278"/>
      <point x="623" y="244" type="qcurve"/>
      <point x="623" y="156" type="line"/>
      <point x="711" y="156" type="line"/>
      <point x="722" y="195"/>
      <point x="722" y="235" type="qcurve" smooth="yes"/>
      <point x="722" y="298"/>
      <point x="674" y="408"/>
      <point x="592" y="490"/>
      <point x="481" y="538"/>
      <point x="418" y="538" type="qcurve" smooth="yes"/>
      <point x="355" y="538"/>
      <point x="245" y="490"/>
      <point x="163" y="408"/>
      <point x="115" y="298"/>
      <point x="115" y="235" type="qcurve" smooth="yes"/>
      <point x="115" y="172"/>
      <point x="163" y="62"/>
      <point x="245" y="-20"/>
      <point x="355" y="-68"/>
      <point x="418" y="-68" type="qcurve" smooth="yes"/>
      <point x="475" y="-68"/>
      <point x="574" y="-30"/>
      <point x="614" y="3" type="qcurve"/>
      <point x="731" y="3" type="line"/>
      <point x="714" y="-20"/>
      <point x="694" y="-40" type="qcurve" smooth="yes"/>
      <point x="641" y="-93"/>
      <point x="570" y="-124" type="qcurve" smooth="yes"/>
      <point x="498" y="-154"/>
      <point x="418" y="-154" type="qcurve" smooth="yes"/>
      <point x="339" y="-154"/>
      <point x="267" y="-124" type="qcurve" smooth="yes"/>
      <point x="197" y="-94"/>
      <point x="143" y="-40" type="qcurve" smooth="yes"/>
      <point x="116" y="-14"/>
      <point x="74" y="48"/>
      <point x="59" y="83" type="qcurve" smooth="yes"/>
      <point x="29" y="155"/>
      <point x="29" y="235" type="qcurve" smooth="yes"/>
      <point x="29" y="315"/>
    </contour>
  </outline>
</glyph>
<glyph name="A" format="2">
  <advance width="888"/>
  <unicode hex="0041"/>
  <outline>
    <contour>
      <point x="517" y="483" type="qcurve" smooth="yes"/>
      <point x="363" y="483" type="line" smooth="yes"/>
      <point x="332" y="483"/>
      <point x="278" y="460"/>
      <point x="237" y="419"/>
      <point x="214" y="365"/>
      <point x="214" y="334" type="qcurve" smooth="yes"/>
      <point x="214" y="0" type="line"/>
      <point x="29" y="0" type="line"/>
      <point x="29" y="334" type="line" smooth="yes"/>
      <point x="29" y="403"/>
      <point x="82" y="525"/>
      <point x="172" y="615"/>
      <point x="294" y="668"/>
      <point x="363" y="668" type="qcurve" smooth="yes"/>
      <point x="517" y="668" type="line" smooth="yes"/>
      <point x="586" y="668"/>
      <point x="708" y="615"/>
      <point x="799" y="525"/>
      <point x="852" y="403"/>
      <point x="852" y="334" type="qcurve" smooth="yes"/>
      <point x="852" y="185" type="line"/>
      <point x="257" y="185" type="line"/>
      <point x="257" y="334" type="line" smooth="yes"/>
      <point x="257" y="343"/>
      <point x="259" y="353" type="qcurve"/>
      <point x="264" y="371" type="line"/>
      <point x="661" y="371" type="line"/>
      <point x="655" y="395"/>
      <point x="627" y="436"/>
      <point x="589" y="466"/>
      <point x="542" y="483"/>
    </contour>
    <contour>
      <point x="852" y="148" type="line"/>
      <point x="852" y="0" type="line"/>
      <point x="666" y="0" type="line"/>
      <point x="666" y="148" type="line"/>
    </contour>
  </outline>
</glyph>
<glyph name="F" format="2">
  <advance width="858"/>
  <unicode hex="0046"/>
  <outline>
    <contour>
      <point x="261" y="669" type="line"/>
      <point x="819" y="669" type="line"/>
      <point x="819" y="483" type="line"/>
      <point x="261" y="483" type="line"/>
    </contour>
    <contour>
      <point x="261" y="428" type="line"/>
      <point x="819" y="428" type="line"/>
      <point x="819" y="242" type="line"/>
      <point x="261" y="242" type="line"/>
    </contour>
    <contour>
      <point x="224" y="669" type="line"/>
      <point x="224" y="0" type="line"/>
      <point x="38" y="0" type="line"/>
      <point x="38" y="669" type="line"/>
    </contour>
  </outline>
</glyph>
<glyph name="H" format="2">
  <advance width="849"/>
  <unicode hex="0048"/>
  <outline>
    <contour>
      <point x="222" y="0" type="line"/>
      <point x="36" y="0" type="line"/>
      <point x="36" y="668" type="line"/>
      <point x="222" y="668" type="line"/>
    </contour>
    <contour>
      <point x="817" y="148" type="line"/>
      <point x="259" y="148" type="line"/>
      <point x="259" y="334" type="line"/>
      <point x="631" y="334" type="line"/>
      <point x="631" y="668" type="line"/>
      <point x="817" y="668" type="line"/>
    </contour>
    <contour>
      <point x="817" y="0" type="line"/>
      <point x="631" y="0" type="line"/>
      <point x="631" y="111" type="line"/>
      <point x="817" y="111" type="line"/>
    </contour>
  </outline>
</glyph>
<glyph name="J" format="2">
  <advance width="693"/>
  <unicode hex="004A"/>
  <outline>
    <contour>
      <point x="477" y="668" type="line"/>
      <point x="663" y="668" type="line"/>
      <point x="663" y="334" type="line" smooth="yes"/>
      <point x="663" y="265"/>
      <point x="610" y="143"/>
      <point x="520" y="53"/>
      <point x="398" y="0"/>
      <point x="329" y="0" type="qcurve" smooth="yes"/>
      <point x="31" y="0" type="line"/>
      <point x="31" y="185" type="line"/>
      <point x="150" y="185"/>
      <point x="241" y="183"/>
      <point x="253" y="183" type="qcurve" smooth="yes"/>
      <point x="316" y="183"/>
      <point x="408" y="199"/>
      <point x="457" y="249"/>
      <point x="477" y="356"/>
      <point x="477" y="445" type="qcurve"/>
      <point x="477" y="447"/>
      <point x="477" y="450" type="qcurve" smooth="yes"/>
      <point x="477" y="456" type="line"/>
      <point x="477" y="457"/>
      <point x="477" y="458" type="qcurve"/>
      <point x="477" y="473" type="line" smooth="yes"/>
      <point x="477" y="476"/>
      <point x="477" y="479" type="qcurve" smooth="yes"/>
      <point x="477" y="497" type="line" smooth="yes"/>
      <point x="477" y="500"/>
      <point x="477" y="503" type="qcurve" smooth="yes"/>
      <point x="477" y="536" type="line" smooth="yes"/>
      <point x="477" y="539"/>
      <point x="477" y="543" type="qcurve" smooth="yes"/>
      <point x="477" y="639" type="line" smooth="yes"/>
      <point x="477" y="643"/>
      <point x="477" y="648" type="qcurve" smooth="yes"/>
    </contour>
  </outline>
</glyph>
<glyph name="L" format="2">
  <advance width="703"/>
  <unicode hex="004C"/>
  <outline>
    <contour>
      <point x="666" y="186" type="line"/>
      <point x="666" y="0" type="line"/>
      <point x="34" y="0" type="line"/>
      <point x="34" y="669" type="line"/>
      <point x="220" y="669" type="line"/>
      <point x="220" y="186" type="line"/>
    </contour>
  </outline>
</glyph>
<glyph name="M" format="2">
  <advance width="1033"/>
  <unicode hex="004D"/>
  <outline>
    <contour>
      <point x="1003" y="669" type="line"/>
      <point x="1003" y="0" type="line"/>
      <point x="818" y="0" type="line"/>
      <point x="818" y="313" type="line"/>
      <point x="648" y="36" type="line"/>
      <point x="539" y="214" type="line"/>
      <point x="818" y="669" type="line"/>
    </contour>
    <contour>
      <point x="254" y="608" type="line"/>
      <point x="626" y="0" type="line"/>
      <point x="408" y="0" type="line"/>
      <point x="254" y="252" type="line"/>
    </contour>
    <contour>
      <point x="217" y="669" type="line"/>
      <point x="217" y="0" type="line"/>
      <point x="32" y="0" type="line"/>
      <point x="32" y="669" type="line"/>
    </contour>
  </outline>
</glyph>
<glyph name="N" format="2">
  <advance width="888"/>
  <unicode hex="004E"/>
  <outline>
    <contour>
      <point x="224" y="669" type="line"/>
      <point x="224" y="0" type="line"/>
      <point x="38" y="0" type="line"/>
      <point x="38" y="669" type="line"/>
    </contour>
    <contour>
      <point x="855" y="669" type="line"/>
      <point x="855" y="0" type="line"/>
      <point x="670" y="0" type="line"/>
      <point x="261" y="381" type="line"/>
      <point x="261" y="634" type="line"/>
      <point x="670" y="252" type="line"/>
      <point x="670" y="669" type="line"/>
    </contour>
  </outline>
</glyph>
<glyph name="O" format="2">
  <advance width="949"/>
  <unicode hex="004F"/>
  <outline>
    <contour>
      <point x="586" y="668" type="line" smooth="yes"/>
      <point x="655" y="668"/>
      <point x="777" y="615"/>
      <point x="868" y="525"/>
      <point x="921" y="403"/>
      <point x="921" y="334" type="qcurve" smooth="yes"/>
      <point x="921" y="265"/>
      <point x="868" y="143"/>
      <point x="777" y="53"/>
      <point x="655" y="0"/>
      <point x="586" y="0" type="qcurve" smooth="yes"/>
      <point x="363" y="0" type="line" smooth="yes"/>
      <point x="294" y="0"/>
      <point x="172" y="53"/>
      <point x="82" y="143"/>
      <point x="29" y="265"/>
      <point x="29" y="334" type="qcurve" smooth="yes"/>
      <point x="29" y="403"/>
      <point x="82" y="524"/>
      <point x="173" y="615"/>
      <point x="294" y="668"/>
      <point x="363" y="668" type="qcurve" smooth="yes"/>
    </contour>
    <contour>
      <point x="363" y="185" type="qcurve" smooth="yes"/>
      <point x="586" y="185" type="line" smooth="yes"/>
      <point x="617" y="185"/>
      <point x="671" y="208"/>
      <point x="711" y="249"/>
      <point x="735" y="303"/>
      <point x="735" y="334" type="qcurve" smooth="yes"/>
      <point x="735" y="365"/>
      <point x="711" y="419"/>
      <point x="671" y="459"/>
      <point x="617" y="483"/>
      <point x="586" y="483" type="qcurve" smooth="yes"/>
      <point x="363" y="483" type="line" smooth="yes"/>
      <point x="332" y="483"/>
      <point x="278" y="459"/>
      <point x="237" y="419"/>
      <point x="214" y="365"/>
      <point x="214" y="334" type="qcurve" smooth="yes"/>
      <point x="214" y="303"/>
      <point x="237" y="249"/>
      <point x="278" y="208"/>
      <point x="332" y="185"/>
    </contour>
  </outline>
</glyph>
<glyph name="P" format="2">
  <advance width="888"/>
  <unicode hex="0050"/>
  <outline>
    <contour>
      <point x="668" y="427" type="line"/>
      <point x="668" y="483" type="line"/>
      <point x="255" y="483" type="line"/>
      <point x="255" y="668" type="line"/>
      <point x="668" y="668" type="line" smooth="yes"/>
      <point x="719" y="668"/>
      <point x="789" y="631"/>
      <point x="834" y="570"/>
      <point x="854" y="489"/>
      <point x="854" y="445" type="qcurve" smooth="yes"/>
      <point x="854" y="403"/>
      <point x="829" y="329"/>
      <point x="782" y="274"/>
      <point x="713" y="241"/>
      <point x="668" y="241" type="qcurve" smooth="yes"/>
      <point x="223" y="241" type="line"/>
      <point x="223" y="0" type="line"/>
      <point x="37" y="0" type="line"/>
      <point x="37" y="668" type="line"/>
      <point x="223" y="668" type="line"/>
      <point x="223" y="427" type="line"/>
    </contour>
  </outline>
</glyph>
<glyph name="Q" format="2">
  <advance width="945"/>
  <unicode hex="0051"/>
  <outline>
    <contour>
      <point x="520" y="185" type="qcurve"/>
      <point x="644" y="5" type="line"/>
      <point x="629" y="2"/>
      <point x="598" y="0"/>
      <point x="583" y="0" type="qcurve" smooth="yes"/>
      <point x="361" y="0" type="line" smooth="yes"/>
      <point x="292" y="0"/>
      <point x="170" y="53"/>
      <point x="79" y="143"/>
      <point x="26" y="265"/>
      <point x="26" y="334" type="qcurve" smooth="yes"/>
      <point x="26" y="403"/>
      <point x="79" y="525"/>
      <point x="170" y="615"/>
      <point x="292" y="668"/>
      <point x="361" y="668" type="qcurve" smooth="yes"/>
      <point x="583" y="668" type="line" smooth="yes"/>
      <point x="652" y="668"/>
      <point x="774" y="615"/>
      <point x="865" y="524"/>
      <point x="918" y="402"/>
      <point x="918" y="333" type="qcurve" smooth="yes"/>
      <point x="918" y="273"/>
      <point x="875" y="162"/>
      <point x="837" y="117" type="qcurve"/>
      <point x="918" y="0" type="line"/>
      <point x="693" y="0" type="line"/>
      <point x="636" y="76"/>
      <point x="532" y="233"/>
      <point x="478" y="311" type="qcurve"/>
      <point x="704" y="311" type="line"/>
      <point x="723" y="283" type="line"/>
      <point x="732" y="308"/>
      <point x="732" y="335" type="qcurve" smooth="yes"/>
      <point x="732" y="365"/>
      <point x="708" y="419"/>
      <point x="668" y="460"/>
      <point x="613" y="483"/>
      <point x="583" y="483" type="qcurve" smooth="yes"/>
      <point x="361" y="483" type="line" smooth="yes"/>
      <point x="331" y="483"/>
      <point x="276" y="459"/>
      <point x="236" y="419"/>
      <point x="212" y="364"/>
      <point x="212" y="334" type="qcurve" smooth="yes"/>
      <point x="212" y="290"/>
      <point x="242" y="234"/>
      <point x="291" y="201"/>
      <point x="354" y="187"/>
      <point x="412" y="184"/>
      <point x="434" y="184" type="qcurve" smooth="yes"/>
      <point x="446" y="184"/>
      <point x="491" y="185"/>
    </contour>
  </outline>
</glyph>
<glyph name="U" format="2">
  <advance width="888"/>
  <unicode hex="0055"/>
  <outline>
    <contour>
      <point x="852" y="668" type="line"/>
      <point x="854" y="334" type="line"/>
      <point x="854" y="265"/>
      <point x="801" y="143"/>
      <point x="710" y="53"/>
      <point x="588" y="0"/>
      <point x="519" y="0" type="qcurve" smooth="yes"/>
      <point x="370" y="0" type="line" smooth="yes"/>
      <point x="301" y="0"/>
      <point x="179" y="53"/>
      <point x="89" y="143"/>
      <point x="36" y="265"/>
      <point x="36" y="334" type="qcurve" smooth="yes"/>
      <point x="36" y="668" type="line"/>
      <point x="221" y="668" type="line"/>
      <point x="221" y="334" type="line" smooth="yes"/>
      <point x="221" y="303"/>
      <point x="244" y="249"/>
      <point x="285" y="208"/>
      <point x="339" y="185"/>
      <point x="370" y="185" type="qcurve" smooth="yes"/>
      <point x="519" y="185" type="line" smooth="yes"/>
      <point x="550" y="185"/>
      <point x="604" y="208"/>
      <point x="644" y="249"/>
      <point x="668" y="303"/>
      <point x="668" y="334" type="qcurve" smooth="yes"/>
      <point x="668" y="666" type="line"/>
    </contour>
  </outline>
</glyph>
<glyph name="W" format="2">
  <advance width="1022"/>
  <unicode hex="0057"/>
  <outline>
    <contour>
      <point x="990" y="669" type="line"/>
      <point x="990" y="362" type="line"/>
      <point x="990" y="361"/>
      <point x="830" y="46"/>
      <point x="827" y="41" type="qcurve"/>
      <point x="724" y="248" type="line"/>
      <point x="726" y="251"/>
      <point x="804" y="405"/>
      <point x="804" y="406" type="qcurve"/>
      <point x="804" y="669" type="line"/>
    </contour>
    <contour>
      <point x="807" y="0" type="line"/>
      <point x="599" y="0" type="line"/>
      <point x="509" y="178" type="line"/>
      <point x="440" y="41" type="line"/>
      <point x="336" y="248" type="line"/>
      <point x="338" y="251"/>
      <point x="416" y="405"/>
      <point x="416" y="406" type="qcurve"/>
      <point x="416" y="669" type="line"/>
      <point x="602" y="669" type="line"/>
      <point x="602" y="668"/>
      <point x="602" y="668" type="qcurve"/>
      <point x="602" y="667" type="line"/>
      <point x="602" y="667"/>
      <point x="602" y="666" type="qcurve"/>
      <point x="602" y="657" type="line"/>
      <point x="602" y="656"/>
      <point x="602" y="654" type="qcurve"/>
      <point x="602" y="651" type="line"/>
      <point x="602" y="650"/>
      <point x="602" y="648" type="qcurve"/>
      <point x="602" y="638" type="line"/>
      <point x="602" y="636"/>
      <point x="602" y="634" type="qcurve"/>
      <point x="602" y="528" type="line" smooth="yes"/>
      <point x="602" y="524"/>
      <point x="602" y="520" type="qcurve" smooth="yes"/>
      <point x="602" y="513" type="line" smooth="yes"/>
      <point x="602" y="509"/>
      <point x="602" y="506" type="qcurve" smooth="yes"/>
      <point x="602" y="474" type="line" smooth="yes"/>
      <point x="602" y="471"/>
      <point x="602" y="468" type="qcurve" smooth="yes"/>
      <point x="602" y="463" type="line" smooth="yes"/>
      <point x="602" y="460"/>
      <point x="602" y="458" type="qcurve"/>
      <point x="602" y="444" type="line"/>
      <point x="602" y="442"/>
      <point x="602" y="440" type="qcurve"/>
      <point x="602" y="406" type="line"/>
    </contour>
    <contour>
      <point x="211" y="0" type="line"/>
      <point x="208" y="6"/>
      <point x="28" y="362"/>
      <point x="28" y="362" type="qcurve"/>
      <point x="28" y="669" type="line"/>
      <point x="214" y="669" type="line"/>
      <point x="214" y="668" type="line"/>
      <point x="214" y="668"/>
      <point x="214" y="666" type="qcurve"/>
      <point x="214" y="658" type="line"/>
      <point x="214" y="656"/>
      <point x="214" y="654" type="qcurve"/>
      <point x="214" y="651" type="line"/>
      <point x="214" y="650"/>
      <point x="214" y="648" type="qcurve"/>
      <point x="214" y="638" type="line" smooth="yes"/>
      <point x="214" y="635"/>
      <point x="214" y="632" type="qcurve" smooth="yes"/>
      <point x="214" y="588" type="line" smooth="yes"/>
      <point x="214" y="585"/>
      <point x="214" y="582" type="qcurve" smooth="yes"/>
      <point x="214" y="572" type="line" smooth="yes"/>
      <point x="214" y="569"/>
      <point x="214" y="565" type="qcurve" smooth="yes"/>
      <point x="214" y="524" type="line" smooth="yes"/>
      <point x="214" y="516"/>
      <point x="214" y="509" type="qcurve" smooth="yes"/>
      <point x="214" y="477" type="line" smooth="yes"/>
      <point x="214" y="473"/>
      <point x="214" y="468" type="qcurve" smooth="yes"/>
      <point x="214" y="463" type="line" smooth="yes"/>
      <point x="214" y="460"/>
      <point x="214" y="458" type="qcurve"/>
      <point x="214" y="444" type="line" smooth="yes"/>
      <point x="214" y="441"/>
      <point x="214" y="438" type="qcurve" smooth="yes"/>
      <point x="214" y="413" type="line"/>
      <point x="214" y="412"/>
      <point x="214" y="412" type="qcurve"/>
      <point x="214" y="409" type="line"/>
      <point x="214" y="409"/>
      <point x="214" y="408" type="qcurve"/>
      <point x="214" y="406" type="line"/>
      <point x="419" y="0" type="line"/>
    </contour>
  </outline>
</glyph>
<glyph name="X" format="2">
  <advance width="846"/>
  <unicode hex="0058"/>
  <outline>
    <contour>
      <point x="813" y="669" type="line"/>
      <point x="813" y="563" type="line" smooth="yes"/>
      <point x="813" y="507"/>
      <point x="778" y="416"/>
      <point x="743" y="374" type="qcurve"/>
      <point x="728" y="390"/>
      <point x="686" y="420"/>
      <point x="640" y="444"/>
      <point x="591" y="461"/>
      <point x="570" y="466" type="qcurve"/>
      <point x="599" y="485"/>
      <point x="624" y="530"/>
      <point x="630" y="572"/>
      <point x="630" y="589" type="qcurve" smooth="yes"/>
      <point x="630" y="599"/>
      <point x="627" y="638"/>
      <point x="627" y="669" type="qcurve"/>
    </contour>
    <contour>
      <point x="32" y="563" type="qcurve" smooth="yes"/>
      <point x="32" y="669" type="line"/>
      <point x="218" y="669" type="line"/>
      <point x="218" y="563" type="line" smooth="yes"/>
      <point x="218" y="512"/>
      <point x="273" y="461"/>
      <point x="353" y="440"/>
      <point x="398" y="440" type="qcurve" smooth="yes"/>
      <point x="401" y="440" type="line" smooth="yes"/>
      <point x="404" y="440"/>
      <point x="408" y="440" type="qcurve" smooth="yes"/>
      <point x="417" y="440" type="line" smooth="yes"/>
      <point x="421" y="440"/>
      <point x="425" y="440" type="qcurve" smooth="yes"/>
      <point x="467" y="440" type="line"/>
      <point x="468" y="440"/>
      <point x="469" y="440" type="qcurve"/>
      <point x="478" y="440" type="line" smooth="yes"/>
      <point x="542" y="440"/>
      <point x="663" y="394"/>
      <point x="757" y="313"/>
      <point x="813" y="199"/>
      <point x="813" y="132" type="qcurve" smooth="yes"/>
      <point x="813" y="0" type="line"/>
      <point x="627" y="0" type="line"/>
      <point x="627" y="132" type="line" smooth="yes"/>
      <point x="627" y="166"/>
      <point x="601" y="210"/>
      <point x="559" y="237"/>
      <point x="504" y="250"/>
      <point x="451" y="255"/>
      <point x="427" y="255" type="qcurve" smooth="yes"/>
      <point x="423" y="255"/>
      <point x="390" y="254"/>
      <point x="367" y="254" type="qcurve" smooth="yes"/>
      <point x="302" y="254"/>
      <point x="181" y="300"/>
      <point x="88" y="382"/>
      <point x="32" y="495"/>
    </contour>
    <contour>
      <point x="32" y="132" type="line" smooth="yes"/>
      <point x="32" y="188"/>
      <point x="67" y="278"/>
      <point x="102" y="320" type="qcurve"/>
      <point x="116" y="304"/>
      <point x="158" y="275"/>
      <point x="206" y="251"/>
      <point x="254" y="233"/>
      <point x="275" y="228" type="qcurve"/>
      <point x="244" y="209"/>
      <point x="219" y="157"/>
      <point x="214" y="111"/>
      <point x="214" y="94" type="qcurve" smooth="yes"/>
      <point x="214" y="79"/>
      <point x="218" y="32"/>
      <point x="218" y="0" type="qcurve"/>
      <point x="32" y="0" type="line"/>
    </contour>
  </outline>
</glyph>
<glyph name="Y" format="2">
  <advance width="833"/>
  <unicode hex="0059"/>
  <outline>
    <contour>
      <point x="362" y="414" type="qcurve" smooth="yes"/>
      <point x="474" y="414" type="line" smooth="yes"/>
      <point x="532" y="414"/>
      <point x="592" y="463"/>
      <point x="619" y="538"/>
      <point x="622" y="628"/>
      <point x="622" y="669" type="qcurve"/>
      <point x="808" y="669" type="line"/>
      <point x="808" y="563" type="line" smooth="yes"/>
      <point x="808" y="494"/>
      <point x="755" y="372"/>
      <point x="665" y="281"/>
      <point x="543" y="228"/>
      <point x="474" y="228" type="qcurve" smooth="yes"/>
      <point x="362" y="228" type="line" smooth="yes"/>
      <point x="293" y="228"/>
      <point x="171" y="281"/>
      <point x="81" y="372"/>
      <point x="28" y="494"/>
      <point x="28" y="563" type="qcurve" smooth="yes"/>
      <point x="28" y="669" type="line"/>
      <point x="213" y="669" type="line"/>
      <point x="213" y="628"/>
      <point x="216" y="538"/>
      <point x="243" y="463"/>
      <point x="304" y="414"/>
    </contour>
    <contour>
      <point x="511" y="193" type="qcurve"/>
      <point x="511" y="0" type="line"/>
      <point x="325" y="0" type="line"/>
      <point x="325" y="193" type="line"/>
      <point x="372" y="189"/>
      <point x="418" y="189" type="qcurve" smooth="yes"/>
      <point x="465" y="189"/>
    </contour>
  </outline>
</glyph>
<glyph name="Z" format="2">
  <advance width="845"/>
  <unicode hex="005A"/>
  <outline>
    <contour>
      <point x="273" y="0" type="qcurve"/>
      <point x="35" y="0" type="line"/>
      <point x="220" y="228" type="line"/>
      <point x="220" y="229" type="line"/>
      <point x="273" y="292"/>
      <point x="375" y="419"/>
      <point x="427" y="483" type="qcurve"/>
      <point x="35" y="483" type="line"/>
      <point x="35" y="669" type="line"/>
      <point x="814" y="669" type="line"/>
      <point x="678" y="501"/>
      <point x="408" y="169"/>
    </contour>
    <contour>
      <point x="321" y="0" type="line"/>
      <point x="472" y="186" type="line"/>
      <point x="814" y="186" type="line"/>
      <point x="814" y="0" type="line"/>
    </contour>
  </outline>
</glyph>
<glyph name="bracketleft" format="2">
  <advance width="293"/>
  <unicode hex="005B"/>
  <outline>
    <contour>
      <point x="383" y="897" type="line"/>
      <point x="383" y="711" type="line"/>
      <point x="221" y="711" type="line"/>
      <point x="221" y="-64" type="line"/>
      <point x="383" y="-64" type="line"/>
      <point x="383" y="-250" type="line"/>
      <point x="35" y="-250" type="line"/>
      <point x="35" y="897" type="line"/>
    </contour>
  </outline>
</glyph>
<glyph name="backslash" format="2">
  <advance width="764"/>
  <unicode hex="005C"/>
  <outline>
    <contour>
      <point x="206" y="735" type="line"/>
      <point x="712" y="-74" type="line"/>
      <point x="526" y="-74" type="line"/>
      <point x="20" y="735" type="line"/>
    </contour>
  </outline>
</glyph>
<glyph name="bracketright" format="2">
  <advance width="293"/>
  <unicode hex="005D"/>
  <outline>
    <contour>
      <point x="383" y="897" type="line"/>
      <point x="383" y="-250" type="line"/>
      <point x="35" y="-250" type="line"/>
      <point x="35" y="-64" type="line"/>
      <point x="197" y="-64" type="line"/>
      <point x="197" y="711" type="line"/>
      <point x="35" y="711" type="line"/>
      <point x="35" y="897" type="line"/>
    </contour>
  </outline>
</glyph>
<glyph name="asciicircum" format="2">
  <advance width="642"/>
  <unicode hex="005E"/>
  <outline>
    <contour>
      <point x="38" y="285" type="line"/>
      <point x="262" y="639" type="line"/>
      <point x="376" y="639" type="line"/>
      <point x="600" y="285" type="line"/>
      <point x="479" y="211" type="line"/>
      <point x="319" y="464" type="line"/>
      <point x="159" y="211" type="line"/>
    </contour>
  </outline>
</glyph>
<glyph name="underscore" format="2">
  <advance width="624"/>
  <unicode hex="005F"/>
  <outline>
    <contour>
      <point x="37" y="-43" type="line"/>
      <point x="586" y="-43" type="line"/>
      <point x="586" y="-204" type="line"/>
      <point x="37" y="-204" type="line"/>
    </contour>
  </outline>
</glyph>
<glyph name="grave" format="2">
  <advance width="306"/>
  <unicode hex="0060"/>
  <outline>
    <contour>
      <point x="250" y="708" type="line"/>
      <point x="165" y="726"/>
      <point x="51" y="769"/>
      <point x="32" y="779" type="qcurve"/>
      <point x="40" y="814"/>
      <point x="70" y="876"/>
      <point x="90" y="905" type="qcurve"/>
      <point x="104" y="898"/>
      <point x="144" y="871"/>
      <point x="193" y="835"/>
      <point x="247" y="792"/>
      <point x="276" y="770" type="qcurve"/>
    </contour>
  </outline>
</glyph>
<glyph name="c" format="2">
  <advance width="888"/>
  <unicode hex="0063"/>
  <outline>
    <contour>
      <point x="852" y="669" type="line"/>
      <point x="852" y="483" type="line"/>
      <point x="369" y="483" type="line" smooth="yes"/>
      <point x="339" y="483"/>
      <point x="285" y="460"/>
      <point x="244" y="419"/>
      <point x="220" y="365"/>
      <point x="220" y="335" type="qcurve" smooth="yes"/>
      <point x="220" y="270"/>
      <point x="281" y="207"/>
      <point x="367" y="185"/>
      <point x="415" y="185" type="qcurve" smooth="yes"/>
      <point x="419" y="185"/>
      <point x="475" y="186"/>
      <point x="518" y="186" type="qcurve" smooth="yes"/>
      <point x="852" y="186" type="line"/>
      <point x="852" y="0" type="line"/>
      <point x="369" y="0" type="line" smooth="yes"/>
      <point x="300" y="0"/>
      <point x="178" y="53"/>
      <point x="87" y="144"/>
      <point x="34" y="266"/>
      <point x="34" y="335" type="qcurve" smooth="yes"/>
      <point x="34" y="404"/>
      <point x="87" y="526"/>
      <point x="178" y="616"/>
      <point x="300" y="669"/>
      <point x="369" y="669" type="qcurve" smooth="yes"/>
    </contour>
  </outline>
</glyph>
<glyph name="d" format="2">
  <advance width="888"/>
  <unicode hex="0064"/>
  <outline>
    <contour>
      <point x="221" y="185" type="line"/>
      <point x="518" y="185" type="line" smooth="yes"/>
      <point x="548" y="185"/>
      <point x="603" y="209"/>
      <point x="643" y="249"/>
      <point x="667" y="304"/>
      <point x="667" y="334" type="qcurve" smooth="yes"/>
      <point x="667" y="383"/>
      <point x="625" y="444"/>
      <point x="556" y="477"/>
      <point x="468" y="488"/>
      <point x="454" y="488" type="qcurve"/>
      <point x="452" y="488" type="line"/>
      <point x="449" y="488"/>
      <point x="442" y="488" type="qcurve" smooth="yes"/>
      <point x="433" y="488" type="line"/>
      <point x="431" y="488"/>
      <point x="429" y="488" type="qcurve"/>
      <point x="415" y="488" type="line"/>
      <point x="413" y="488"/>
      <point x="410" y="488" type="qcurve" smooth="yes"/>
      <point x="405" y="488" type="line" smooth="yes"/>
      <point x="402" y="488"/>
      <point x="399" y="488" type="qcurve" smooth="yes"/>
      <point x="373" y="488" type="line" smooth="yes"/>
      <point x="369" y="488"/>
      <point x="365" y="488" type="qcurve" smooth="yes"/>
      <point x="305" y="488" type="line" smooth="yes"/>
      <point x="300" y="488"/>
      <point x="295" y="488" type="qcurve" smooth="yes"/>
      <point x="258" y="488" type="line"/>
      <point x="258" y="668" type="line"/>
      <point x="518" y="668" type="line" smooth="yes"/>
      <point x="587" y="668"/>
      <point x="709" y="615"/>
      <point x="800" y="525"/>
      <point x="853" y="403"/>
      <point x="853" y="334" type="qcurve" smooth="yes"/>
      <point x="853" y="265"/>
      <point x="800" y="143"/>
      <point x="709" y="53"/>
      <point x="587" y="0"/>
      <point x="518" y="0" type="qcurve" smooth="yes"/>
      <point x="35" y="0" type="line"/>
      <point x="35" y="668" type="line"/>
      <point x="221" y="668" type="line"/>
    </contour>
  </outline>
</glyph>
<glyph name="e" format="2">
  <advance width="858"/>
  <unicode hex="0065"/>
  <outline>
    <contour>
      <point x="261" y="669" type="line"/>
      <point x="819" y="669" type="line"/>
      <point x="819" y="483" type="line"/>
      <point x="261" y="483" type="line"/>
    </contour>
    <contour>
      <point x="261" y="428" type="line"/>
      <point x="819" y="428" type="line"/>
      <point x="819" y="242" type="line"/>
      <point x="261" y="242" type="line"/>
    </contour>
    <contour>
      <point x="224" y="187" type="line"/>
      <point x="819" y="187" type="line"/>
      <point x="819" y="1" type="line"/>
      <point x="38" y="0" type="line"/>
      <point x="38" y="669" type="line"/>
      <point x="224" y="669" type="line"/>
    </contour>
  </outline>
</glyph>
<glyph name="g" format="2">
  <advance width="888"/>
  <unicode hex="0067"/>
  <outline>
    <contour>
      <point x="850" y="669" type="line"/>
      <point x="850" y="484" type="line"/>
      <point x="368" y="484" type="line" smooth="yes"/>
      <point x="338" y="484"/>
      <point x="283" y="460"/>
      <point x="243" y="420"/>
      <point x="219" y="365"/>
      <point x="219" y="335" type="qcurve" smooth="yes"/>
      <point x="219" y="285"/>
      <point x="256" y="224"/>
      <point x="314" y="193"/>
      <point x="362" y="186"/>
      <point x="379" y="186" type="qcurve"/>
      <point x="381" y="186" type="line"/>
      <point x="383" y="186"/>
      <point x="385" y="186" type="qcurve"/>
      <point x="389" y="186" type="line"/>
      <point x="389" y="186"/>
      <point x="390" y="186" type="qcurve"/>
      <point x="394" y="186" type="line"/>
      <point x="394" y="186"/>
      <point x="395" y="186" type="qcurve"/>
      <point x="396" y="186" type="line"/>
      <point x="397" y="186"/>
      <point x="397" y="186" type="qcurve"/>
      <point x="422" y="186" type="line" smooth="yes"/>
      <point x="426" y="186"/>
      <point x="434" y="186" type="qcurve" smooth="yes"/>
      <point x="445" y="186" type="line"/>
      <point x="447" y="186"/>
      <point x="449" y="186" type="qcurve"/>
      <point x="464" y="186" type="line" smooth="yes"/>
      <point x="467" y="186"/>
      <point x="470" y="186" type="qcurve" smooth="yes"/>
      <point x="476" y="186" type="line" smooth="yes"/>
      <point x="479" y="186"/>
      <point x="482" y="186" type="qcurve" smooth="yes"/>
      <point x="628" y="186" type="line"/>
      <point x="628" y="1" type="line"/>
      <point x="368" y="1" type="line" smooth="yes"/>
      <point x="299" y="1"/>
      <point x="177" y="54"/>
      <point x="86" y="144"/>
      <point x="33" y="266"/>
      <point x="33" y="335" type="qcurve" smooth="yes"/>
      <point x="33" y="404"/>
      <point x="86" y="526"/>
      <point x="177" y="616"/>
      <point x="299" y="669"/>
      <point x="368" y="669" type="qcurve" smooth="yes"/>
    </contour>
    <contour>
      <point x="850" y="428" type="line"/>
      <point x="850" y="1" type="line"/>
      <point x="665" y="1" type="line"/>
      <point x="665" y="242" type="line"/>
      <point x="405" y="242" type="line"/>
      <point x="405" y="428" type="line"/>
    </contour>
  </outline>
</glyph>
<glyph name="i" format="2">
  <advance width="260"/>
  <unicode hex="0069"/>
  <outline>
    <contour>
      <point x="221" y="669" type="line"/>
      <point x="221" y="0" type="line"/>
      <point x="35" y="0" type="line"/>
      <point x="35" y="669" type="line"/>
    </contour>
  </outline>
</glyph>
<glyph name="k" format="2">
  <advance width="888"/>
  <unicode hex="006B"/>
  <outline>
    <contour>
      <point x="773" y="362" type="qcurve"/>
      <point x="701" y="431"/>
      <point x="602" y="454" type="qcurve"/>
      <point x="632" y="475"/>
      <point x="659" y="522"/>
      <point x="667" y="569"/>
      <point x="667" y="591" type="qcurve" smooth="yes"/>
      <point x="667" y="599"/>
      <point x="665" y="636"/>
      <point x="665" y="669" type="qcurve"/>
      <point x="851" y="669" type="line"/>
      <point x="851" y="576" type="line" smooth="yes"/>
      <point x="851" y="513"/>
      <point x="813" y="410"/>
    </contour>
    <contour>
      <point x="851" y="93" type="qcurve" smooth="yes"/>
      <point x="851" y="0" type="line"/>
      <point x="665" y="0" type="line"/>
      <point x="665" y="40"/>
      <point x="660" y="126"/>
      <point x="632" y="196"/>
      <point x="572" y="241"/>
      <point x="517" y="241" type="qcurve" smooth="yes"/>
      <point x="219" y="241" type="line"/>
      <point x="219" y="0" type="line"/>
      <point x="33" y="0" type="line"/>
      <point x="33" y="669" type="line"/>
      <point x="219" y="669" type="line"/>
      <point x="219" y="427" type="line"/>
      <point x="283" y="427"/>
      <point x="365" y="428"/>
      <point x="375" y="428" type="qcurve" smooth="yes"/>
      <point x="436" y="428"/>
      <point x="567" y="417"/>
      <point x="695" y="382"/>
      <point x="793" y="308"/>
      <point x="851" y="186"/>
    </contour>
  </outline>
</glyph>
<glyph name="l" format="2">
  <advance width="703"/>
  <unicode hex="006C"/>
  <outline>
    <contour>
      <point x="666" y="186" type="line"/>
      <point x="666" y="0" type="line"/>
      <point x="34" y="0" type="line"/>
      <point x="34" y="669" type="line"/>
      <point x="220" y="669" type="line"/>
      <point x="220" y="186" type="line"/>
    </contour>
  </outline>
</glyph>
<glyph name="r" format="2">
  <advance width="888"/>
  <unicode hex="0072"/>
  <outline>
    <contour>
      <point x="665" y="427" type="line"/>
      <point x="665" y="483" type="line"/>
      <point x="251" y="483" type="line"/>
      <point x="251" y="668" type="line"/>
      <point x="665" y="668" type="line" smooth="yes"/>
      <point x="716" y="668"/>
      <point x="786" y="631"/>
      <point x="831" y="570"/>
      <point x="851" y="489"/>
      <point x="851" y="445" type="qcurve" smooth="yes"/>
      <point x="851" y="403"/>
      <point x="826" y="329"/>
      <point x="779" y="274"/>
      <point x="710" y="241"/>
      <point x="665" y="241" type="qcurve" smooth="yes"/>
      <point x="219" y="241" type="line"/>
      <point x="219" y="0" type="line"/>
      <point x="34" y="0" type="line"/>
      <point x="34" y="668" type="line"/>
      <point x="219" y="668" type="line"/>
      <point x="219" y="427" type="line"/>
    </contour>
    <contour>
      <point x="694" y="204" type="line"/>
      <point x="851" y="0" type="line"/>
      <point x="616" y="0" type="line"/>
      <point x="459" y="204" type="line"/>
    </contour>
  </outline>
</glyph>
<glyph name="s" format="2">
  <advance width="845"/>
  <unicode hex="0073"/>
  <outline>
    <contour>
      <point x="220" y="483" type="line"/>
      <point x="220" y="427" type="line"/>
      <point x="591" y="427" type="line" smooth="yes"/>
      <point x="707" y="427"/>
      <point x="814" y="322"/>
      <point x="814" y="205" type="qcurve" smooth="yes"/>
      <point x="814" y="163"/>
      <point x="790" y="89"/>
      <point x="743" y="33"/>
      <point x="674" y="0"/>
      <point x="629" y="0" type="qcurve" smooth="yes"/>
      <point x="34" y="0" type="line"/>
      <point x="34" y="186" type="line"/>
      <point x="629" y="186" type="line"/>
      <point x="629" y="241" type="line"/>
      <point x="220" y="241" type="line" smooth="yes"/>
      <point x="175" y="241"/>
      <point x="106" y="274"/>
      <point x="59" y="330"/>
      <point x="34" y="404"/>
      <point x="34" y="446" type="qcurve" smooth="yes"/>
      <point x="34" y="490"/>
      <point x="54" y="571"/>
      <point x="99" y="632"/>
      <point x="170" y="669"/>
      <point x="220" y="669" type="qcurve" smooth="yes"/>
      <point x="814" y="669" type="line"/>
      <point x="814" y="483" type="line"/>
    </contour>
  </outline>
</glyph>
<glyph name="v" format="2">
  <advance width="860"/>
  <unicode hex="0076"/>
  <outline>
    <contour>
      <point x="545" y="0" type="line"/>
      <point x="311" y="0" type="line"/>
      <point x="31" y="362" type="line"/>
      <point x="31" y="669" type="line"/>
      <point x="217" y="669" type="line"/>
      <point x="217" y="426" type="line"/>
    </contour>
    <contour>
      <point x="831" y="669" type="line"/>
      <point x="831" y="362" type="line"/>
      <point x="572" y="27" type="line"/>
      <point x="454" y="179" type="line"/>
      <point x="645" y="426" type="line"/>
      <point x="645" y="669" type="line"/>
    </contour>
  </outline>
</glyph>
<glyph name="braceleft" format="2">
  <advance width="379"/>
  <unicode hex="007B"/>
  <outline>
    <contour>
      <point x="13" y="400" type="line"/>
      <point x="37" y="401"/>
      <point x="66" y="416"/>
      <point x="81" y="435"/>
      <point x="85" y="451"/>
      <point x="85" y="454" type="qcurve"/>
      <point x="74" y="629" type="line"/>
      <point x="74" y="633"/>
      <point x="74" y="638" type="qcurve" smooth="yes"/>
      <point x="74" y="647"/>
      <point x="77" y="672"/>
      <point x="80" y="687" type="qcurve" smooth="yes"/>
      <point x="89" y="737"/>
      <point x="134" y="793"/>
      <point x="157" y="807" type="qcurve" smooth="yes"/>
      <point x="184" y="824"/>
      <point x="216" y="829" type="qcurve"/>
      <point x="338" y="835" type="line"/>
      <point x="342" y="753" type="line"/>
      <point x="315" y="752"/>
      <point x="287" y="732"/>
      <point x="273" y="710"/>
      <point x="271" y="692"/>
      <point x="271" y="692" type="qcurve"/>
      <point x="280" y="520" type="line"/>
      <point x="281" y="511"/>
      <point x="281" y="504" type="qcurve" smooth="yes"/>
      <point x="281" y="498"/>
      <point x="279" y="479"/>
      <point x="277" y="467" type="qcurve" smooth="yes"/>
      <point x="271" y="435"/>
      <point x="247" y="391"/>
      <point x="219" y="360"/>
      <point x="187" y="342"/>
      <point x="174" y="337" type="qcurve"/>
      <point x="187" y="332"/>
      <point x="219" y="314"/>
      <point x="247" y="283"/>
      <point x="271" y="238"/>
      <point x="277" y="207" type="qcurve" smooth="yes"/>
      <point x="279" y="194"/>
      <point x="281" y="176"/>
      <point x="281" y="170" type="qcurve" smooth="yes"/>
      <point x="281" y="163"/>
      <point x="280" y="154" type="qcurve"/>
      <point x="271" y="-18" type="line"/>
      <point x="271" y="-18"/>
      <point x="273" y="-36"/>
      <point x="287" y="-59"/>
      <point x="315" y="-79"/>
      <point x="342" y="-80" type="qcurve"/>
      <point x="338" y="-161" type="line"/>
      <point x="216" y="-155" type="line"/>
      <point x="184" y="-151"/>
      <point x="157" y="-134" type="qcurve" smooth="yes"/>
      <point x="134" y="-120"/>
      <point x="89" y="-63"/>
      <point x="80" y="-13" type="qcurve" smooth="yes"/>
      <point x="77" y="2"/>
      <point x="74" y="27"/>
      <point x="74" y="36" type="qcurve" smooth="yes"/>
      <point x="74" y="41"/>
      <point x="74" y="45" type="qcurve"/>
      <point x="85" y="220" type="line"/>
      <point x="85" y="223"/>
      <point x="81" y="239"/>
      <point x="66" y="258"/>
      <point x="37" y="273"/>
      <point x="13" y="274" type="qcurve"/>
    </contour>
  </outline>
</glyph>
<glyph name="bar" format="2">
  <advance width="268"/>
  <unicode hex="007C"/>
  <outline>
    <contour>
      <point x="221" y="791" type="line"/>
      <point x="221" y="-132" type="line"/>
      <point x="35" y="-132" type="line"/>
      <point x="35" y="791" type="line"/>
    </contour>
  </outline>
</glyph>
<glyph name="braceright" format="2">
  <advance width="379"/>
  <unicode hex="007D"/>
  <outline>
    <contour>
      <point x="342" y="274" type="line"/>
      <point x="318" y="273"/>
      <point x="289" y="258"/>
      <point x="274" y="239"/>
      <point x="270" y="223"/>
      <point x="270" y="220" type="qcurve"/>
      <point x="281" y="45" type="line"/>
      <point x="281" y="41"/>
      <point x="281" y="36" type="qcurve" smooth="yes"/>
      <point x="281" y="27"/>
      <point x="278" y="2"/>
      <point x="275" y="-13" type="qcurve" smooth="yes"/>
      <point x="265" y="-63"/>
      <point x="221" y="-120"/>
      <point x="198" y="-134" type="qcurve" smooth="yes"/>
      <point x="171" y="-151"/>
      <point x="139" y="-155" type="qcurve"/>
      <point x="17" y="-161" type="line"/>
      <point x="13" y="-80" type="line"/>
      <point x="40" y="-79"/>
      <point x="68" y="-59"/>
      <point x="82" y="-36"/>
      <point x="84" y="-18"/>
      <point x="84" y="-18" type="qcurve"/>
      <point x="75" y="154" type="line"/>
      <point x="74" y="163"/>
      <point x="74" y="170" type="qcurve" smooth="yes"/>
      <point x="74" y="176"/>
      <point x="76" y="194"/>
      <point x="78" y="207" type="qcurve" smooth="yes"/>
      <point x="84" y="238"/>
      <point x="108" y="283"/>
      <point x="136" y="314"/>
      <point x="167" y="332"/>
      <point x="181" y="337" type="qcurve"/>
      <point x="167" y="342"/>
      <point x="136" y="360"/>
      <point x="108" y="391"/>
      <point x="84" y="435"/>
      <point x="78" y="467" type="qcurve" smooth="yes"/>
      <point x="76" y="479"/>
      <point x="74" y="498"/>
      <point x="74" y="504" type="qcurve" smooth="yes"/>
      <point x="74" y="511"/>
      <point x="75" y="520" type="qcurve"/>
      <point x="84" y="692" type="line"/>
      <point x="84" y="692"/>
      <point x="82" y="710"/>
      <point x="68" y="732"/>
      <point x="40" y="752"/>
      <point x="13" y="753" type="qcurve"/>
      <point x="17" y="835" type="line"/>
      <point x="139" y="829" type="line"/>
      <point x="171" y="824"/>
      <point x="198" y="807" type="qcurve" smooth="yes"/>
      <point x="221" y="793"/>
      <point x="265" y="737"/>
      <point x="275" y="687" type="qcurve" smooth="yes"/>
      <point x="278" y="672"/>
      <point x="281" y="647"/>
      <point x="281" y="638" type="qcurve" smooth="yes"/>
      <point x="281" y="633"/>
      <point x="281" y="629" type="qcurve"/>
      <point x="270" y="454" type="line"/>
      <point x="270" y="451"/>
      <point x="274" y="435"/>
      <point x="289" y="416"/>
      <point x="318" y="401"/>
      <point x="342" y="400" type="qcurve"/>
    </contour>
  </outline>
</glyph>
<glyph name="asciitilde" format="2">
  <advance width="613"/>
  <unicode hex="007E"/>
  <outline>
    <contour>
      <point x="439" y="418" type="line"/>
      <point x="439" y="418"/>
      <point x="439" y="418" type="qcurve"/>
      <point x="439" y="418"/>
      <point x="449" y="417"/>
      <point x="451" y="417" type="qcurve"/>
      <point x="459" y="417"/>
      <point x="482" y="425"/>
      <point x="508" y="449"/>
      <point x="514" y="475" type="qcurve"/>
      <point x="593" y="455" type="line"/>
      <point x="562" y="336" type="line"/>
      <point x="551" y="306"/>
      <point x="529" y="283" type="qcurve" smooth="yes"/>
      <point x="510" y="263"/>
      <point x="449" y="232"/>
      <point x="402" y="232" type="qcurve" smooth="yes"/>
      <point x="399" y="232"/>
      <point x="396" y="232" type="qcurve" smooth="yes"/>
      <point x="380" y="232"/>
      <point x="350" y="234"/>
      <point x="338" y="238" type="qcurve"/>
      <point x="169" y="284" type="line" smooth="yes"/>
      <point x="167" y="285"/>
      <point x="163" y="285" type="qcurve" smooth="yes"/>
      <point x="160" y="285"/>
      <point x="149" y="284"/>
      <point x="128" y="274"/>
      <point x="107" y="249"/>
      <point x="101" y="225" type="qcurve"/>
      <point x="24" y="243" type="line"/>
      <point x="56" y="361" type="line" smooth="yes"/>
      <point x="57" y="363"/>
      <point x="71" y="398"/>
      <point x="107" y="438"/>
      <point x="168" y="469"/>
      <point x="214" y="469" type="qcurve" smooth="yes"/>
      <point x="217" y="469"/>
      <point x="220" y="469" type="qcurve" smooth="yes"/>
      <point x="233" y="469"/>
      <point x="259" y="467"/>
      <point x="273" y="462" type="qcurve"/>
    </contour>
  </outline>
</glyph>
<glyph name="exclamdown" format="2">
  <advance width="252"/>
  <unicode hex="00A1"/>
  <outline>
    <contour>
      <point x="32" y="0" type="line"/>
      <point x="32" y="427" type="line"/>
      <point x="218" y="427" type="line"/>
      <point x="218" y="0" type="line"/>
    </contour>
    <contour>
      <point x="32" y="483" type="line"/>
      <point x="32" y="668" type="line"/>
      <point x="218" y="668" type="line"/>
      <point x="218" y="483" type="line"/>
    </contour>
  </outline>
</glyph>
<glyph name="cent" format="2">
  <advance width="888"/>
  <unicode hex="00A2"/>
  <outline>
    <contour>
      <point x="852" y="669" type="line"/>
      <point x="852" y="483" type="line"/>
      <point x="609" y="483" type="line"/>
      <point x="609" y="186" type="line"/>
      <point x="852" y="186" type="line"/>
      <point x="852" y="0" type="line"/>
      <point x="609" y="0" type="line"/>
      <point x="609" y="-132" type="line"/>
      <point x="423" y="-132" type="line"/>
      <point x="423" y="0" type="line"/>
      <point x="369" y="0" type="line" smooth="yes"/>
      <point x="300" y="0"/>
      <point x="178" y="53"/>
      <point x="87" y="144"/>
      <point x="34" y="266"/>
      <point x="34" y="335" type="qcurve" smooth="yes"/>
      <point x="34" y="404"/>
      <point x="87" y="526"/>
      <point x="178" y="616"/>
      <point x="300" y="669"/>
      <point x="369" y="669" type="qcurve" smooth="yes"/>
      <point x="423" y="669" type="line"/>
      <point x="423" y="791" type="line"/>
      <point x="609" y="791" type="line"/>
      <point x="609" y="669" type="line"/>
    </contour>
    <contour>
      <point x="423" y="483" type="line"/>
      <point x="369" y="483" type="line" smooth="yes"/>
      <point x="339" y="483"/>
      <point x="285" y="460"/>
      <point x="244" y="419"/>
      <point x="220" y="365"/>
      <point x="220" y="335" type="qcurve" smooth="yes"/>
      <point x="220" y="270"/>
      <point x="281" y="207"/>
      <point x="367" y="185"/>
      <point x="415" y="185" type="qcurve" smooth="yes"/>
      <point x="419" y="185"/>
      <point x="423" y="185" type="qcurve"/>
    </contour>
  </outline>
</glyph>
<glyph name="sterling" format="2">
  <advance width="812"/>
  <unicode hex="00A3"/>
  <outline>
    <contour>
      <point x="523" y="285" type="line"/>
      <point x="296" y="285" type="line"/>
      <point x="295" y="257"/>
      <point x="295" y="223" type="qcurve" smooth="yes"/>
      <point x="295" y="205" type="line"/>
      <point x="311" y="219"/>
      <point x="334" y="231" type="qcurve" smooth="yes"/>
      <point x="364" y="246"/>
      <point x="410" y="246" type="qcurve" smooth="yes"/>
      <point x="413" y="246"/>
      <point x="416" y="246" type="qcurve" smooth="yes"/>
      <point x="429" y="246"/>
      <point x="455" y="244"/>
      <point x="469" y="239" type="qcurve" smooth="yes"/>
      <point x="635" y="186" type="line"/>
      <point x="635" y="186"/>
      <point x="635" y="186" type="qcurve"/>
      <point x="635" y="186"/>
      <point x="645" y="185"/>
      <point x="647" y="185" type="qcurve"/>
      <point x="655" y="185"/>
      <point x="678" y="193"/>
      <point x="704" y="217"/>
      <point x="710" y="252" type="qcurve"/>
      <point x="789" y="223" type="line"/>
      <point x="758" y="104" type="line"/>
      <point x="747" y="74"/>
      <point x="725" y="51" type="qcurve" smooth="yes"/>
      <point x="706" y="31"/>
      <point x="645" y="0"/>
      <point x="598" y="0" type="qcurve" smooth="yes"/>
      <point x="595" y="0"/>
      <point x="592" y="0" type="qcurve" smooth="yes"/>
      <point x="576" y="0"/>
      <point x="546" y="2"/>
      <point x="534" y="6" type="qcurve" smooth="yes"/>
      <point x="365" y="61" type="line" smooth="yes"/>
      <point x="363" y="62"/>
      <point x="359" y="62" type="qcurve" smooth="yes"/>
      <point x="356" y="62"/>
      <point x="345" y="61"/>
      <point x="324" y="51"/>
      <point x="303" y="26"/>
      <point x="297" y="2" type="qcurve"/>
      <point x="295" y="2" type="line"/>
      <point x="295" y="0" type="line"/>
      <point x="109" y="0" type="line"/>
      <point x="109" y="285" type="line"/>
      <point x="21" y="285" type="line"/>
      <point x="21" y="391" type="line"/>
      <point x="113" y="391" type="line"/>
      <point x="120" y="429"/>
      <point x="135" y="464" type="qcurve" smooth="yes"/>
      <point x="162" y="525"/>
      <point x="252" y="615"/>
      <point x="374" y="668"/>
      <point x="443" y="668" type="qcurve" smooth="yes"/>
      <point x="741" y="668" type="line"/>
      <point x="741" y="483" type="line"/>
      <point x="622" y="483"/>
      <point x="531" y="485"/>
      <point x="519" y="485" type="qcurve" smooth="yes"/>
      <point x="456" y="485"/>
      <point x="364" y="469"/>
      <point x="339" y="444" type="qcurve" smooth="yes"/>
      <point x="321" y="425"/>
      <point x="311" y="391" type="qcurve"/>
      <point x="523" y="391" type="line"/>
    </contour>
  </outline>
</glyph>
<glyph name="yen" format="2">
  <advance width="733"/>
  <unicode hex="00A5"/>
  <outline>
    <contour>
      <point x="327" y="455" type="qcurve" smooth="yes"/>
      <point x="403" y="455" type="line" smooth="yes"/>
      <point x="442" y="455"/>
      <point x="482" y="488"/>
      <point x="501" y="539"/>
      <point x="503" y="600"/>
      <point x="503" y="668" type="qcurve"/>
      <point x="628" y="668" type="line"/>
      <point x="628" y="556" type="line" smooth="yes"/>
      <point x="628" y="509"/>
      <point x="611" y="468" type="qcurve" smooth="yes"/>
      <point x="598" y="437"/>
      <point x="577" y="412" type="qcurve"/>
      <point x="700" y="412" type="line"/>
      <point x="700" y="286" type="line"/>
      <point x="428" y="286" type="line"/>
      <point x="428" y="228" type="line"/>
      <point x="700" y="228" type="line"/>
      <point x="700" y="102" type="line"/>
      <point x="428" y="102" type="line"/>
      <point x="428" y="0" type="line"/>
      <point x="302" y="0" type="line"/>
      <point x="302" y="102" type="line"/>
      <point x="28" y="102" type="line"/>
      <point x="28" y="228" type="line"/>
      <point x="302" y="228" type="line"/>
      <point x="302" y="286" type="line"/>
      <point x="28" y="286" type="line"/>
      <point x="28" y="412" type="line"/>
      <point x="153" y="412" type="line"/>
      <point x="132" y="437"/>
      <point x="119" y="468" type="qcurve" smooth="yes"/>
      <point x="101" y="509"/>
      <point x="101" y="556" type="qcurve" smooth="yes"/>
      <point x="101" y="668" type="line"/>
      <point x="226" y="668" type="line"/>
      <point x="226" y="600"/>
      <point x="228" y="539"/>
      <point x="246" y="488"/>
      <point x="288" y="455"/>
    </contour>
  </outline>
</glyph>
<glyph name="dieresis" format="2">
  <advance width="638"/>
  <unicode hex="00A8"/>
  <outline>
    <contour>
      <point x="116" y="783" type="qcurve" smooth="yes"/>
      <point x="116" y="801"/>
      <point x="129" y="832"/>
      <point x="152" y="855"/>
      <point x="183" y="869"/>
      <point x="201" y="869" type="qcurve" smooth="yes"/>
      <point x="219" y="869"/>
      <point x="250" y="855"/>
      <point x="274" y="832"/>
      <point x="287" y="801"/>
      <point x="287" y="783" type="qcurve" smooth="yes"/>
      <point x="287" y="748"/>
      <point x="237" y="698"/>
      <point x="201" y="698" type="qcurve" smooth="yes"/>
      <point x="166" y="698"/>
      <point x="116" y="748"/>
    </contour>
    <contour>
      <point x="362" y="783" type="qcurve" smooth="yes"/>
      <point x="362" y="801"/>
      <point x="376" y="832"/>
      <point x="399" y="855"/>
      <point x="430" y="869"/>
      <point x="448" y="869" type="qcurve" smooth="yes"/>
      <point x="466" y="869"/>
      <point x="497" y="855"/>
      <point x="520" y="832"/>
      <point x="533" y="801"/>
      <point x="533" y="783" type="qcurve" smooth="yes"/>
      <point x="533" y="748"/>
      <point x="483" y="698"/>
      <point x="448" y="698" type="qcurve" smooth="yes"/>
      <point x="430" y="698"/>
      <point x="399" y="711"/>
      <point x="376" y="734"/>
      <point x="362" y="765"/>
    </contour>
  </outline>
</glyph>
<glyph name="copyright" format="2">
  <advance width="608"/>
  <unicode hex="00A9"/>
  <outline>
    <contour>
      <point x="297" y="668" type="qcurve" smooth="yes"/>
      <point x="352" y="668"/>
      <point x="448" y="627"/>
      <point x="520" y="555"/>
      <point x="561" y="460"/>
      <point x="561" y="406" type="qcurve" smooth="yes"/>
      <point x="561" y="352"/>
      <point x="520" y="256"/>
      <point x="448" y="184"/>
      <point x="352" y="143"/>
      <point x="297" y="143" type="qcurve" smooth="yes"/>
      <point x="243" y="143"/>
      <point x="148" y="184"/>
      <point x="76" y="256"/>
      <point x="35" y="352"/>
      <point x="35" y="406" type="qcurve" smooth="yes"/>
      <point x="35" y="460"/>
      <point x="76" y="555"/>
      <point x="148" y="627"/>
      <point x="243" y="668"/>
    </contour>
    <contour>
      <point x="297" y="209" type="qcurve" smooth="yes"/>
      <point x="338" y="209"/>
      <point x="410" y="240"/>
      <point x="463" y="293"/>
      <point x="494" y="365"/>
      <point x="494" y="406" type="qcurve" smooth="yes"/>
      <point x="494" y="446"/>
      <point x="463" y="517"/>
      <point x="410" y="571"/>
      <point x="338" y="602"/>
      <point x="297" y="602" type="qcurve" smooth="yes"/>
      <point x="256" y="602"/>
      <point x="185" y="571"/>
      <point x="132" y="517"/>
      <point x="102" y="446"/>
      <point x="102" y="406" type="qcurve" smooth="yes"/>
      <point x="102" y="365"/>
      <point x="132" y="293"/>
      <point x="185" y="240"/>
      <point x="256" y="209"/>
    </contour>
    <contour>
      <point x="397" y="305" type="line"/>
      <point x="379" y="285"/>
      <point x="326" y="264"/>
      <point x="297" y="264" type="qcurve" smooth="yes"/>
      <point x="268" y="264"/>
      <point x="217" y="286"/>
      <point x="178" y="325"/>
      <point x="155" y="376"/>
      <point x="155" y="406" type="qcurve" smooth="yes"/>
      <point x="155" y="435"/>
      <point x="178" y="487"/>
      <point x="217" y="526"/>
      <point x="268" y="548"/>
      <point x="297" y="548" type="qcurve" smooth="yes"/>
      <point x="326" y="548"/>
      <point x="377" y="526"/>
      <point x="397" y="508" type="qcurve"/>
      <point x="347" y="467" type="line"/>
      <point x="337" y="475"/>
      <point x="311" y="484"/>
      <point x="297" y="484" type="qcurve" smooth="yes"/>
      <point x="281" y="484"/>
      <point x="253" y="472"/>
      <point x="231" y="451"/>
      <point x="218" y="422"/>
      <point x="218" y="406" type="qcurve" smooth="yes"/>
      <point x="218" y="373"/>
      <point x="265" y="327"/>
      <point x="297" y="327" type="qcurve" smooth="yes"/>
      <point x="312" y="327"/>
      <point x="341" y="337"/>
      <point x="350" y="347" type="qcurve"/>
    </contour>
  </outline>
</glyph>
<glyph name="ordfeminine" format="2">
  <advance width="457"/>
  <unicode hex="00AA"/>
  <outline>
    <contour>
      <point x="280" y="552" type="line"/>
      <point x="289" y="541"/>
      <point x="300" y="510"/>
      <point x="302" y="496" type="qcurve" smooth="yes"/>
      <point x="305" y="479"/>
      <point x="306" y="462" type="qcurve"/>
      <point x="113" y="462" type="line"/>
      <point x="113" y="435" type="line"/>
      <point x="329" y="435" type="line"/>
      <point x="329" y="517" type="line"/>
      <point x="324" y="543"/>
      <point x="287" y="579"/>
      <point x="261" y="579" type="qcurve" smooth="yes"/>
      <point x="58" y="579" type="line"/>
      <point x="58" y="668" type="line"/>
      <point x="261" y="668" type="line" smooth="yes"/>
      <point x="291" y="668"/>
      <point x="344" y="646"/>
      <point x="386" y="608"/>
      <point x="414" y="557"/>
      <point x="419" y="528" type="qcurve"/>
      <point x="419" y="345" type="line"/>
      <point x="113" y="345" type="line" smooth="yes"/>
      <point x="76" y="345"/>
      <point x="23" y="397"/>
      <point x="23" y="435" type="qcurve" smooth="yes"/>
      <point x="23" y="462" type="line" smooth="yes"/>
      <point x="23" y="480"/>
      <point x="38" y="513"/>
      <point x="62" y="537"/>
      <point x="95" y="552"/>
      <point x="113" y="552" type="qcurve" smooth="yes"/>
    </contour>
  </outline>
</glyph>
<glyph name="guillemotleft" format="2">
  <advance width="474"/>
  <unicode hex="00AB"/>
  <outline>
    <contour>
      <point x="368" y="0" type="line"/>
      <point x="346" y="28"/>
      <point x="304" y="82"/>
      <point x="268" y="130"/>
      <point x="241" y="170"/>
      <point x="234" y="184" type="qcurve"/>
      <point x="233" y="184" type="line"/>
      <point x="234" y="185" type="line"/>
      <point x="233" y="185" type="line"/>
      <point x="248" y="213"/>
      <point x="323" y="313"/>
      <point x="368" y="370" type="qcurve"/>
      <point x="430" y="344" type="line"/>
      <point x="420" y="295"/>
      <point x="396" y="214"/>
      <point x="385" y="185" type="qcurve"/>
      <point x="396" y="156"/>
      <point x="420" y="75"/>
      <point x="430" y="25" type="qcurve"/>
    </contour>
    <contour>
      <point x="178" y="0" type="line"/>
      <point x="156" y="28"/>
      <point x="114" y="82"/>
      <point x="78" y="130"/>
      <point x="51" y="170"/>
      <point x="44" y="184" type="qcurve"/>
      <point x="43" y="184" type="line"/>
      <point x="44" y="185" type="line"/>
      <point x="43" y="185" type="line"/>
      <point x="58" y="213"/>
      <point x="133" y="313"/>
      <point x="178" y="370" type="qcurve"/>
      <point x="240" y="344" type="line"/>
      <point x="230" y="295"/>
      <point x="206" y="214"/>
      <point x="195" y="185" type="qcurve"/>
      <point x="206" y="156"/>
      <point x="230" y="75"/>
      <point x="240" y="25" type="qcurve"/>
    </contour>
  </outline>
</glyph>
<glyph name="uni00AD" format="2">
  <advance width="467"/>
  <unicode hex="00AD"/>
  <outline>
    <contour>
      <point x="427" y="229" type="line"/>
      <point x="32" y="229" type="line"/>
      <point x="32" y="415" type="line"/>
      <point x="427" y="415" type="line"/>
    </contour>
  </outline>
</glyph>
<glyph name="registered" format="2">
  <advance width="650"/>
  <unicode hex="00AE"/>
  <outline>
    <contour>
      <point x="327" y="73" type="qcurve" smooth="yes"/>
      <point x="267" y="73"/>
      <point x="162" y="118"/>
      <point x="84" y="196"/>
      <point x="38" y="301"/>
      <point x="38" y="361" type="qcurve" smooth="yes"/>
      <point x="38" y="421"/>
      <point x="84" y="526"/>
      <point x="162" y="604"/>
      <point x="267" y="650"/>
      <point x="327" y="650" type="qcurve" smooth="yes"/>
      <point x="387" y="650"/>
      <point x="493" y="604"/>
      <point x="571" y="526"/>
      <point x="617" y="421"/>
      <point x="617" y="361" type="qcurve" smooth="yes"/>
      <point x="617" y="301"/>
      <point x="571" y="196"/>
      <point x="493" y="118"/>
      <point x="387" y="73"/>
    </contour>
    <contour>
      <point x="327" y="587" type="qcurve" smooth="yes"/>
      <point x="280" y="587"/>
      <point x="198" y="552"/>
      <point x="136" y="490"/>
      <point x="101" y="408"/>
      <point x="101" y="361" type="qcurve" smooth="yes"/>
      <point x="101" y="314"/>
      <point x="136" y="232"/>
      <point x="198" y="170"/>
      <point x="280" y="135"/>
      <point x="327" y="135" type="qcurve" smooth="yes"/>
      <point x="374" y="135"/>
      <point x="457" y="170"/>
      <point x="518" y="232"/>
      <point x="554" y="314"/>
      <point x="554" y="361" type="qcurve" smooth="yes"/>
      <point x="554" y="408"/>
      <point x="518" y="490"/>
      <point x="457" y="552"/>
      <point x="374" y="587"/>
    </contour>
    <contour>
      <point x="465" y="251" type="line"/>
      <point x="385" y="251" type="line"/>
      <point x="321" y="333" type="line"/>
      <point x="250" y="333" type="line"/>
      <point x="250" y="251" type="line"/>
      <point x="187" y="251" type="line"/>
      <point x="187" y="479" type="line"/>
      <point x="402" y="479" type="line" smooth="yes"/>
      <point x="419" y="479"/>
      <point x="443" y="466"/>
      <point x="458" y="445"/>
      <point x="465" y="418"/>
      <point x="465" y="403" type="qcurve" smooth="yes"/>
      <point x="465" y="388"/>
      <point x="457" y="363"/>
      <point x="441" y="345"/>
      <point x="417" y="333"/>
      <point x="402" y="333" type="qcurve"/>
      <point x="401" y="333" type="line"/>
    </contour>
    <contour>
      <point x="402" y="397" type="line"/>
      <point x="402" y="416" type="line"/>
      <point x="250" y="416" type="line"/>
      <point x="250" y="397" type="line"/>
    </contour>
  </outline>
</glyph>
<glyph name="macron" format="2">
  <advance width="379"/>
  <unicode hex="00AF"/>
  <outline>
    <contour>
      <point x="45" y="833" type="line"/>
      <point x="324" y="833" type="line"/>
      <point x="324" y="720" type="line"/>
      <point x="45" y="720" type="line"/>
    </contour>
  </outline>
</glyph>
<glyph name="degree" format="2">
  <advance width="369"/>
  <unicode hex="00B0"/>
  <outline>
    <contour>
      <point x="184" y="303" type="qcurve" smooth="yes"/>
      <point x="152" y="303"/>
      <point x="94" y="327"/>
      <point x="71" y="350" type="qcurve" smooth="yes"/>
      <point x="25" y="398"/>
      <point x="25" y="463" type="qcurve" smooth="yes"/>
      <point x="25" y="529"/>
      <point x="71" y="575" type="qcurve" smooth="yes"/>
      <point x="94" y="598"/>
      <point x="152" y="622"/>
      <point x="184" y="622" type="qcurve" smooth="yes"/>
      <point x="216" y="622"/>
      <point x="274" y="598"/>
      <point x="297" y="575" type="qcurve" smooth="yes"/>
      <point x="343" y="529"/>
      <point x="343" y="463" type="qcurve" smooth="yes"/>
      <point x="343" y="398"/>
      <point x="297" y="350" type="qcurve" smooth="yes"/>
      <point x="274" y="327"/>
      <point x="216" y="303"/>
    </contour>
    <contour>
      <point x="184" y="559" type="qcurve" smooth="yes"/>
      <point x="144" y="559"/>
      <point x="88" y="503"/>
      <point x="88" y="463" type="qcurve" smooth="yes"/>
      <point x="88" y="443"/>
      <point x="103" y="408"/>
      <point x="129" y="381"/>
      <point x="164" y="366"/>
      <point x="184" y="366" type="qcurve" smooth="yes"/>
      <point x="204" y="366"/>
      <point x="239" y="381"/>
      <point x="265" y="408"/>
      <point x="280" y="443"/>
      <point x="280" y="463" type="qcurve" smooth="yes"/>
      <point x="280" y="503"/>
      <point x="224" y="559"/>
    </contour>
  </outline>
</glyph>
<glyph name="acute" format="2">
  <advance width="306"/>
  <unicode hex="00B4"/>
  <outline>
    <contour>
      <point x="32" y="770" type="line"/>
      <point x="60" y="792"/>
      <point x="115" y="835"/>
      <point x="164" y="871"/>
      <point x="204" y="898"/>
      <point x="218" y="905" type="qcurve"/>
      <point x="238" y="876"/>
      <point x="268" y="814"/>
      <point x="276" y="779" type="qcurve"/>
      <point x="257" y="769"/>
      <point x="143" y="726"/>
      <point x="58" y="708" type="qcurve"/>
    </contour>
  </outline>
</glyph>
<glyph name="paragraph" format="2">
  <advance width="743"/>
  <unicode hex="00B6"/>
  <outline>
    <contour>
      <point x="715" y="614" type="line"/>
      <point x="715" y="468" type="line"/>
      <point x="626" y="468" type="line"/>
      <point x="626" y="-81" type="line"/>
      <point x="479" y="-81" type="line"/>
      <point x="479" y="468" type="line"/>
      <point x="337" y="468" type="line"/>
      <point x="337" y="-81" type="line"/>
      <point x="190" y="-81" type="line"/>
      <point x="190" y="360" type="line"/>
      <point x="153" y="360" type="line" smooth="yes"/>
      <point x="127" y="360"/>
      <point x="80" y="380"/>
      <point x="45" y="414"/>
      <point x="25" y="460"/>
      <point x="25" y="486" type="qcurve" smooth="yes"/>
      <point x="25" y="513"/>
      <point x="45" y="559"/>
      <point x="80" y="594"/>
      <point x="127" y="614"/>
      <point x="153" y="614" type="qcurve" smooth="yes"/>
    </contour>
  </outline>
</glyph>
<glyph name="periodcentered" format="2">
  <advance width="265"/>
  <unicode hex="00B7"/>
  <outline>
    <contour>
      <point x="29" y="337" type="qcurve" smooth="yes"/>
      <point x="29" y="379"/>
      <point x="86" y="436"/>
      <point x="128" y="436" type="qcurve" smooth="yes"/>
      <point x="170" y="436"/>
      <point x="227" y="379"/>
      <point x="227" y="337" type="qcurve" smooth="yes"/>
      <point x="227" y="295"/>
      <point x="170" y="238"/>
      <point x="128" y="238" type="qcurve" smooth="yes"/>
      <point x="86" y="238"/>
      <point x="29" y="295"/>
    </contour>
  </outline>
</glyph>
<glyph name="cedilla" format="2">
  <advance width="544"/>
  <unicode hex="00B8"/>
  <outline>
    <contour>
      <point x="279" y="-46" type="line" smooth="yes"/>
      <point x="309" y="-46"/>
      <point x="362" y="-70"/>
      <point x="402" y="-111"/>
      <point x="425" y="-165"/>
      <point x="425" y="-196" type="qcurve" smooth="yes"/>
      <point x="425" y="-227"/>
      <point x="402" y="-282"/>
      <point x="362" y="-323"/>
      <point x="309" y="-347"/>
      <point x="279" y="-347" type="qcurve" smooth="yes"/>
      <point x="200" y="-347" type="line"/>
      <point x="200" y="-236" type="line"/>
      <point x="279" y="-236" type="line" smooth="yes"/>
      <point x="295" y="-236"/>
      <point x="317" y="-213"/>
      <point x="317" y="-196" type="qcurve" smooth="yes"/>
      <point x="317" y="-180"/>
      <point x="295" y="-157"/>
      <point x="279" y="-157" type="qcurve" smooth="yes"/>
      <point x="162" y="-157" type="line"/>
      <point x="162" y="2" type="line"/>
      <point x="265" y="2" type="line"/>
      <point x="265" y="-46" type="line"/>
    </contour>
  </outline>
</glyph>
<glyph name="ordmasculine" format="2">
  <advance width="481"/>
  <unicode hex="00BA"/>
  <outline>
    <contour>
      <point x="295" y="668" type="line" smooth="yes"/>
      <point x="328" y="668"/>
      <point x="387" y="643"/>
      <point x="431" y="599"/>
      <point x="457" y="540"/>
      <point x="457" y="506" type="qcurve" smooth="yes"/>
      <point x="457" y="473"/>
      <point x="431" y="414"/>
      <point x="387" y="370"/>
      <point x="328" y="345"/>
      <point x="295" y="345" type="qcurve" smooth="yes"/>
      <point x="187" y="345" type="line" smooth="yes"/>
      <point x="154" y="345"/>
      <point x="95" y="370"/>
      <point x="51" y="414"/>
      <point x="25" y="473"/>
      <point x="25" y="506" type="qcurve" smooth="yes"/>
      <point x="25" y="539"/>
      <point x="51" y="598"/>
      <point x="95" y="642"/>
      <point x="154" y="668"/>
      <point x="187" y="668" type="qcurve" smooth="yes"/>
    </contour>
    <contour>
      <point x="187" y="434" type="qcurve" smooth="yes"/>
      <point x="295" y="434" type="line" smooth="yes"/>
      <point x="325" y="434"/>
      <point x="367" y="476"/>
      <point x="367" y="506" type="qcurve" smooth="yes"/>
      <point x="367" y="536"/>
      <point x="325" y="579"/>
      <point x="295" y="579" type="qcurve" smooth="yes"/>
      <point x="187" y="579" type="line" smooth="yes"/>
      <point x="157" y="579"/>
      <point x="115" y="536"/>
      <point x="115" y="506" type="qcurve" smooth="yes"/>
      <point x="115" y="476"/>
      <point x="157" y="434"/>
    </contour>
  </outline>
</glyph>
<glyph name="questiondown" format="2">
  <advance width="805"/>
  <unicode hex="00BF"/>
  <outline>
    <contour>
      <point x="363" y="483" type="line"/>
      <point x="363" y="669" type="line"/>
      <point x="549" y="669" type="line"/>
      <point x="549" y="483" type="line"/>
    </contour>
    <contour>
      <point x="215" y="242" type="qcurve"/>
      <point x="215" y="186" type="line"/>
      <point x="772" y="186" type="line"/>
      <point x="772" y="0" type="line"/>
      <point x="215" y="0" type="line" smooth="yes"/>
      <point x="176" y="0"/>
      <point x="109" y="29"/>
      <point x="58" y="80"/>
      <point x="29" y="147"/>
      <point x="29" y="186" type="qcurve" smooth="yes"/>
      <point x="29" y="242" type="line" smooth="yes"/>
      <point x="29" y="280"/>
      <point x="58" y="348"/>
      <point x="109" y="398"/>
      <point x="177" y="427"/>
      <point x="215" y="427" type="qcurve" smooth="yes"/>
      <point x="549" y="427" type="line"/>
      <point x="549" y="377"/>
      <point x="519" y="310"/>
      <point x="467" y="269"/>
      <point x="400" y="249"/>
      <point x="330" y="241"/>
      <point x="296" y="241" type="qcurve" smooth="yes"/>
      <point x="292" y="241"/>
      <point x="250" y="242"/>
    </contour>
  </outline>
</glyph>
<glyph name="multiply" format="2">
  <advance width="631"/>
  <unicode hex="00D7"/>
  <outline>
    <contour>
      <point x="173" y="577" type="line"/>
      <point x="316" y="435" type="line"/>
      <point x="459" y="578" type="line"/>
      <point x="585" y="452" type="line"/>
      <point x="442" y="309" type="line"/>
      <point x="580" y="171" type="line"/>
      <point x="454" y="45" type="line"/>
      <point x="316" y="183" type="line"/>
      <point x="179" y="46" type="line"/>
      <point x="53" y="172" type="line"/>
      <point x="190" y="309" type="line"/>
      <point x="47" y="452" type="line"/>
    </contour>
  </outline>
</glyph>
<glyph name="ae" format="2">
  <advance width="1435"/>
  <unicode hex="00E6"/>
  <outline>
    <contour>
      <point x="257" y="334" type="line" smooth="yes"/>
      <point x="257" y="343"/>
      <point x="259" y="353" type="qcurve"/>
      <point x="264" y="371" type="line"/>
      <point x="607" y="371" type="line"/>
      <point x="607" y="483" type="line"/>
      <point x="363" y="483" type="line" smooth="yes"/>
      <point x="332" y="483"/>
      <point x="305" y="471" type="qcurve" smooth="yes"/>
      <point x="278" y="460"/>
      <point x="237" y="419"/>
      <point x="214" y="365"/>
      <point x="214" y="334" type="qcurve" smooth="yes"/>
      <point x="214" y="0" type="line"/>
      <point x="29" y="0" type="line"/>
      <point x="29" y="334" type="line" smooth="yes"/>
      <point x="29" y="403"/>
      <point x="82" y="525"/>
      <point x="172" y="615"/>
      <point x="294" y="668"/>
      <point x="363" y="668" type="qcurve" smooth="yes"/>
      <point x="793" y="668" type="line"/>
      <point x="793" y="187" type="line"/>
      <point x="1388" y="187" type="line"/>
      <point x="1388" y="1" type="line"/>
      <point x="607" y="0" type="line"/>
      <point x="607" y="185" type="line"/>
      <point x="257" y="185" type="line"/>
    </contour>
    <contour>
      <point x="830" y="668" type="line"/>
      <point x="1388" y="668" type="line"/>
      <point x="1388" y="483" type="line"/>
      <point x="830" y="483" type="line"/>
    </contour>
    <contour>
      <point x="830" y="428" type="line"/>
      <point x="1388" y="428" type="line"/>
      <point x="1388" y="242" type="line"/>
      <point x="830" y="242" type="line"/>
    </contour>
  </outline>
</glyph>
<glyph name="thorn" format="2">
  <advance width="862"/>
  <unicode hex="00FE"/>
  <outline>
    <contour>
      <point x="221" y="669" type="line"/>
      <point x="221" y="307" type="line"/>
      <point x="640" y="307" type="line"/>
      <point x="640" y="363" type="line"/>
      <point x="254" y="363" type="line"/>
      <point x="254" y="548" type="line"/>
      <point x="640" y="548" type="line" smooth="yes"/>
      <point x="691" y="548"/>
      <point x="761" y="511"/>
      <point x="806" y="450"/>
      <point x="826" y="369"/>
      <point x="826" y="325" type="qcurve" smooth="yes"/>
      <point x="826" y="283"/>
      <point x="801" y="209"/>
      <point x="754" y="154"/>
      <point x="685" y="121"/>
      <point x="640" y="121" type="qcurve" smooth="yes"/>
      <point x="221" y="121" type="line"/>
      <point x="221" y="0" type="line"/>
      <point x="35" y="0" type="line"/>
      <point x="35" y="669" type="line"/>
    </contour>
  </outline>
</glyph>
<glyph name="Dcaron" format="2">
  <advance width="888"/>
  <unicode hex="010E"/>
  <outline>
    <contour>
      <point x="596" y="845" type="line"/>
      <point x="568" y="823"/>
      <point x="514" y="781"/>
      <point x="466" y="745"/>
      <point x="426" y="718"/>
      <point x="412" y="711" type="qcurve"/>
      <point x="412" y="710" type="line"/>
      <point x="411" y="711" type="line"/>
      <point x="411" y="710" type="line"/>
      <point x="383" y="725"/>
      <point x="283" y="800"/>
      <point x="226" y="845" type="qcurve"/>
      <point x="252" y="907" type="line"/>
      <point x="301" y="897"/>
      <point x="382" y="873"/>
      <point x="411" y="862" type="qcurve"/>
      <point x="440" y="873"/>
      <point x="521" y="897"/>
      <point x="571" y="907" type="qcurve"/>
    </contour>
    <contour>
      <point x="221" y="185" type="line"/>
      <point x="518" y="185" type="line" smooth="yes"/>
      <point x="548" y="185"/>
      <point x="603" y="209"/>
      <point x="643" y="249"/>
      <point x="667" y="304"/>
      <point x="667" y="334" type="qcurve" smooth="yes"/>
      <point x="667" y="383"/>
      <point x="625" y="444"/>
      <point x="556" y="477"/>
      <point x="468" y="488"/>
      <point x="454" y="488" type="qcurve"/>
      <point x="452" y="488" type="line"/>
      <point x="449" y="488"/>
      <point x="442" y="488" type="qcurve" smooth="yes"/>
      <point x="433" y="488" type="line"/>
      <point x="431" y="488"/>
      <point x="429" y="488" type="qcurve"/>
      <point x="415" y="488" type="line"/>
      <point x="413" y="488"/>
      <point x="410" y="488" type="qcurve" smooth="yes"/>
      <point x="405" y="488" type="line" smooth="yes"/>
      <point x="402" y="488"/>
      <point x="399" y="488" type="qcurve" smooth="yes"/>
      <point x="373" y="488" type="line" smooth="yes"/>
      <point x="369" y="488"/>
      <point x="365" y="488" type="qcurve" smooth="yes"/>
      <point x="305" y="488" type="line" smooth="yes"/>
      <point x="300" y="488"/>
      <point x="295" y="488" type="qcurve" smooth="yes"/>
      <point x="258" y="488" type="line"/>
      <point x="258" y="668" type="line"/>
      <point x="518" y="668" type="line" smooth="yes"/>
      <point x="587" y="668"/>
      <point x="709" y="615"/>
      <point x="800" y="525"/>
      <point x="853" y="403"/>
      <point x="853" y="334" type="qcurve" smooth="yes"/>
      <point x="853" y="265"/>
      <point x="800" y="143"/>
      <point x="709" y="53"/>
      <point x="587" y="0"/>
      <point x="518" y="0" type="qcurve" smooth="yes"/>
      <point x="35" y="0" type="line"/>
      <point x="35" y="668" type="line"/>
      <point x="221" y="668" type="line"/>
    </contour>
  </outline>
</glyph>
<glyph name="Dcroat" format="2">
  <advance width="989"/>
  <unicode hex="0110"/>
  <outline>
    <contour>
      <point x="422" y="258" type="line"/>
      <point x="303" y="258" type="line"/>
      <point x="303" y="185" type="line"/>
      <point x="600" y="185" type="line" smooth="yes"/>
      <point x="630" y="185"/>
      <point x="685" y="209"/>
      <point x="725" y="249"/>
      <point x="749" y="304"/>
      <point x="749" y="334" type="qcurve" smooth="yes"/>
      <point x="749" y="383"/>
      <point x="707" y="444"/>
      <point x="638" y="477"/>
      <point x="550" y="488"/>
      <point x="535" y="488" type="qcurve" smooth="yes"/>
      <point x="340" y="488" type="line"/>
      <point x="340" y="668" type="line"/>
      <point x="600" y="668" type="line" smooth="yes"/>
      <point x="669" y="668"/>
      <point x="791" y="615"/>
      <point x="882" y="525"/>
      <point x="935" y="403"/>
      <point x="935" y="334" type="qcurve" smooth="yes"/>
      <point x="935" y="265"/>
      <point x="882" y="143"/>
      <point x="791" y="53"/>
      <point x="669" y="0"/>
      <point x="600" y="0" type="qcurve" smooth="yes"/>
      <point x="117" y="0" type="line"/>
      <point x="117" y="258" type="line"/>
      <point x="45" y="258" type="line"/>
      <point x="45" y="436" type="line"/>
      <point x="117" y="436" type="line"/>
      <point x="117" y="668" type="line"/>
      <point x="303" y="668" type="line"/>
      <point x="303" y="436" type="line"/>
      <point x="422" y="436" type="line"/>
    </contour>
  </outline>
</glyph>
<glyph name="Hbar" format="2">
  <advance width="1017"/>
  <unicode hex="0126"/>
  <outline>
    <contour>
      <point x="669" y="393" type="line"/>
      <point x="293" y="393" type="line"/>
      <point x="293" y="0" type="line"/>
      <point x="107" y="0" type="line"/>
      <point x="107" y="393" type="line"/>
      <point x="19" y="393" type="line"/>
      <point x="19" y="579" type="line"/>
      <point x="107" y="579" type="line"/>
      <point x="107" y="668" type="line"/>
      <point x="293" y="668" type="line"/>
      <point x="293" y="579" type="line"/>
      <point x="669" y="579" type="line"/>
    </contour>
    <contour>
      <point x="888" y="148" type="line"/>
      <point x="330" y="148" type="line"/>
      <point x="330" y="334" type="line"/>
      <point x="702" y="334" type="line"/>
      <point x="702" y="668" type="line"/>
      <point x="888" y="668" type="line"/>
    </contour>
    <contour>
      <point x="888" y="0" type="line"/>
      <point x="702" y="0" type="line"/>
      <point x="702" y="111" type="line"/>
      <point x="888" y="111" type="line"/>
    </contour>
    <contour>
      <point x="997" y="393" type="line"/>
      <point x="916" y="393" type="line"/>
      <point x="916" y="579" type="line"/>
      <point x="997" y="579" type="line"/>
    </contour>
  </outline>
</glyph>
<glyph name="Lslash" format="2">
  <advance width="770"/>
  <unicode hex="0141"/>
  <outline>
    <contour>
      <point x="744" y="186" type="line"/>
      <point x="744" y="0" type="line"/>
      <point x="112" y="0" type="line"/>
      <point x="112" y="241" type="line"/>
      <point x="28" y="196" type="line"/>
      <point x="28" y="407" type="line"/>
      <point x="112" y="452" type="line"/>
      <point x="112" y="669" type="line"/>
      <point x="298" y="669" type="line"/>
      <point x="298" y="553" type="line"/>
      <point x="421" y="619" type="line"/>
      <point x="421" y="407" type="line"/>
      <point x="298" y="341" type="line"/>
      <point x="298" y="186" type="line"/>
    </contour>
  </outline>
</glyph>
<glyph name="OE" format="2">
  <advance width="1549"/>
  <unicode hex="0152"/>
  <outline>
    <contour>
      <point x="363" y="185" type="qcurve" smooth="yes"/>
      <point x="736" y="185" type="line"/>
      <point x="736" y="669" type="line"/>
      <point x="922" y="669" type="line"/>
      <point x="922" y="187" type="line"/>
      <point x="1517" y="187" type="line"/>
      <point x="1517" y="1" type="line"/>
      <point x="363" y="0" type="line"/>
      <point x="294" y="0"/>
      <point x="172" y="53"/>
      <point x="82" y="143"/>
      <point x="29" y="265"/>
      <point x="29" y="334" type="qcurve" smooth="yes"/>
      <point x="29" y="403"/>
      <point x="82" y="524"/>
      <point x="173" y="615"/>
      <point x="294" y="668"/>
      <point x="363" y="668" type="qcurve" smooth="yes"/>
      <point x="711" y="668" type="line"/>
      <point x="711" y="483" type="line"/>
      <point x="363" y="483" type="line" smooth="yes"/>
      <point x="332" y="483"/>
      <point x="278" y="459"/>
      <point x="237" y="419"/>
      <point x="214" y="365"/>
      <point x="214" y="334" type="qcurve" smooth="yes"/>
      <point x="214" y="303"/>
      <point x="237" y="249"/>
      <point x="278" y="208"/>
      <point x="332" y="185"/>
    </contour>
    <contour>
      <point x="959" y="669" type="line"/>
      <point x="1517" y="669" type="line"/>
      <point x="1517" y="483" type="line"/>
      <point x="959" y="483" type="line"/>
    </contour>
    <contour>
      <point x="959" y="428" type="line"/>
      <point x="1517" y="428" type="line"/>
      <point x="1517" y="242" type="line"/>
      <point x="959" y="242" type="line"/>
    </contour>
  </outline>
</glyph>
<glyph name="Tbar" format="2">
  <advance width="843"/>
  <unicode hex="0166"/>
  <outline>
    <contour>
      <point x="675" y="229" type="line"/>
      <point x="512" y="229" type="line"/>
      <point x="512" y="0" type="line"/>
      <point x="326" y="0" type="line"/>
      <point x="326" y="483" type="line"/>
      <point x="29" y="483" type="line"/>
      <point x="29" y="669" type="line"/>
      <point x="512" y="669" type="line"/>
      <point x="512" y="415" type="line"/>
      <point x="675" y="415" type="line"/>
    </contour>
    <contour>
      <point x="809" y="669" type="line"/>
      <point x="809" y="483" type="line"/>
      <point x="549" y="483" type="line"/>
      <point x="549" y="669" type="line"/>
    </contour>
    <contour>
      <point x="292" y="229" type="line"/>
      <point x="135" y="229" type="line"/>
      <point x="135" y="415" type="line"/>
      <point x="292" y="415" type="line"/>
    </contour>
  </outline>
</glyph>
<glyph name="circumflex" format="2">
  <advance width="423"/>
  <unicode hex="02C6"/>
  <outline>
    <contour>
      <point x="377" y="710" type="line"/>
      <point x="327" y="720"/>
      <point x="246" y="744"/>
      <point x="217" y="755" type="qcurve"/>
      <point x="188" y="744"/>
      <point x="107" y="720"/>
      <point x="58" y="710" type="qcurve"/>
      <point x="32" y="772" type="line"/>
      <point x="89" y="817"/>
      <point x="189" y="892"/>
      <point x="217" y="907" type="qcurve"/>
      <point x="217" y="906" type="line"/>
      <point x="218" y="907" type="line"/>
      <point x="218" y="906" type="line"/>
      <point x="232" y="899"/>
      <point x="272" y="872"/>
      <point x="320" y="836"/>
      <point x="374" y="794"/>
      <point x="402" y="772" type="qcurve"/>
    </contour>
  </outline>
</glyph>
<glyph name="caron" format="2">
  <advance width="428"/>
  <unicode hex="02C7"/>
  <outline>
    <contour>
      <point x="402" y="845" type="line"/>
      <point x="374" y="823"/>
      <point x="320" y="781"/>
      <point x="272" y="745"/>
      <point x="232" y="718"/>
      <point x="218" y="711" type="qcurve"/>
      <point x="218" y="710" type="line"/>
      <point x="217" y="711" type="line"/>
      <point x="217" y="710" type="line"/>
      <point x="189" y="725"/>
      <point x="89" y="800"/>
      <point x="32" y="845" type="qcurve"/>
      <point x="58" y="907" type="line"/>
      <point x="107" y="897"/>
      <point x="188" y="873"/>
      <point x="217" y="862" type="qcurve"/>
      <point x="246" y="873"/>
      <point x="327" y="897"/>
      <point x="377" y="907" type="qcurve"/>
    </contour>
  </outline>
</glyph>
<glyph name="uni02C9" format="2">
  <advance width="379"/>
  <unicode hex="02C9"/>
  <outline>
    <contour>
      <point x="45" y="833" type="line"/>
      <point x="324" y="833" type="line"/>
      <point x="324" y="720" type="line"/>
      <point x="45" y="720" type="line"/>
    </contour>
  </outline>
</glyph>
<glyph name="breve" format="2">
  <advance width="366"/>
  <unicode hex="02D8"/>
  <outline>
    <contour>
      <point x="198" y="693" type="qcurve" smooth="yes"/>
      <point x="169" y="693"/>
      <point x="117" y="714"/>
      <point x="78" y="751"/>
      <point x="56" y="801"/>
      <point x="56" y="829" type="qcurve" smooth="yes"/>
      <point x="56" y="840" type="line"/>
      <point x="162" y="840" type="line"/>
      <point x="162" y="829" type="line" smooth="yes"/>
      <point x="162" y="815"/>
      <point x="183" y="794"/>
      <point x="198" y="794" type="qcurve" smooth="yes"/>
      <point x="212" y="794"/>
      <point x="232" y="815"/>
      <point x="232" y="829" type="qcurve"/>
      <point x="232" y="831"/>
      <point x="231" y="834"/>
      <point x="228" y="840" type="qcurve"/>
      <point x="337" y="840" type="line"/>
      <point x="337" y="829" type="line" smooth="yes"/>
      <point x="337" y="801"/>
      <point x="315" y="751"/>
      <point x="278" y="714"/>
      <point x="227" y="693"/>
    </contour>
  </outline>
</glyph>
<glyph name="dotaccent" format="2">
  <advance width="252"/>
  <unicode hex="02D9"/>
  <outline>
    <contour>
      <point x="39" y="789" type="qcurve" smooth="yes"/>
      <point x="39" y="830"/>
      <point x="93" y="885"/>
      <point x="134" y="885" type="qcurve" smooth="yes"/>
      <point x="175" y="885"/>
      <point x="231" y="830"/>
      <point x="231" y="789" type="qcurve" smooth="yes"/>
      <point x="231" y="748"/>
      <point x="175" y="694"/>
      <point x="134" y="694" type="qcurve" smooth="yes"/>
      <point x="93" y="694"/>
      <point x="39" y="748"/>
    </contour>
  </outline>
</glyph>
<glyph name="ring" format="2">
  <advance width="309"/>
  <unicode hex="02DA"/>
  <outline>
    <contour>
      <point x="161" y="702" type="qcurve" smooth="yes"/>
      <point x="137" y="702"/>
      <point x="94" y="720"/>
      <point x="63" y="752"/>
      <point x="45" y="794"/>
      <point x="45" y="818" type="qcurve" smooth="yes"/>
      <point x="45" y="842"/>
      <point x="63" y="885"/>
      <point x="94" y="917"/>
      <point x="137" y="935"/>
      <point x="161" y="935" type="qcurve" smooth="yes"/>
      <point x="185" y="935"/>
      <point x="227" y="917"/>
      <point x="258" y="885"/>
      <point x="276" y="842"/>
      <point x="276" y="818" type="qcurve" smooth="yes"/>
      <point x="276" y="794"/>
      <point x="258" y="752"/>
      <point x="227" y="720"/>
      <point x="185" y="702"/>
    </contour>
    <contour>
      <point x="161" y="841" type="qcurve" smooth="yes"/>
      <point x="152" y="841"/>
      <point x="138" y="829"/>
      <point x="138" y="818" type="qcurve" smooth="yes"/>
      <point x="138" y="810"/>
      <point x="152" y="796"/>
      <point x="161" y="796" type="qcurve" smooth="yes"/>
      <point x="170" y="796"/>
      <point x="183" y="810"/>
      <point x="183" y="818" type="qcurve" smooth="yes"/>
      <point x="183" y="829"/>
      <point x="170" y="841"/>
    </contour>
  </outline>
</glyph>
<glyph name="ogonek" format="2">
  <advance width="492"/>
  <unicode hex="02DB"/>
  <outline>
    <contour>
      <point x="250" y="-46" type="line"/>
      <point x="250" y="2" type="line"/>
      <point x="353" y="2" type="line"/>
      <point x="353" y="-157" type="line"/>
      <point x="236" y="-157" type="line" smooth="yes"/>
      <point x="220" y="-157"/>
      <point x="198" y="-180"/>
      <point x="198" y="-196" type="qcurve" smooth="yes"/>
      <point x="198" y="-213"/>
      <point x="220" y="-236"/>
      <point x="236" y="-236" type="qcurve" smooth="yes"/>
      <point x="315" y="-236" type="line"/>
      <point x="315" y="-347" type="line"/>
      <point x="236" y="-347" type="line" smooth="yes"/>
      <point x="206" y="-347"/>
      <point x="153" y="-323"/>
      <point x="113" y="-282"/>
      <point x="90" y="-227"/>
      <point x="90" y="-196" type="qcurve" smooth="yes"/>
      <point x="90" y="-165"/>
      <point x="113" y="-111"/>
      <point x="153" y="-70"/>
      <point x="206" y="-46"/>
      <point x="236" y="-46" type="qcurve" smooth="yes"/>
    </contour>
  </outline>
</glyph>
<glyph name="tilde" format="2">
  <advance width="417"/>
  <unicode hex="02DC"/>
  <outline>
    <contour>
      <point x="297" y="847" type="line"/>
      <point x="297" y="847"/>
      <point x="297" y="847" type="qcurve"/>
      <point x="297" y="847"/>
      <point x="303" y="846"/>
      <point x="304" y="846" type="qcurve"/>
      <point x="309" y="846"/>
      <point x="325" y="852"/>
      <point x="342" y="870"/>
      <point x="347" y="888" type="qcurve"/>
      <point x="399" y="874" type="line"/>
      <point x="378" y="789" type="line"/>
      <point x="370" y="768"/>
      <point x="356" y="751" type="qcurve" smooth="yes"/>
      <point x="344" y="737"/>
      <point x="303" y="714"/>
      <point x="273" y="714" type="qcurve"/>
      <point x="271" y="714"/>
      <point x="268" y="714" type="qcurve"/>
      <point x="257" y="715"/>
      <point x="237" y="717"/>
      <point x="229" y="719" type="qcurve" smooth="yes"/>
      <point x="117" y="752" type="line"/>
      <point x="116" y="752"/>
      <point x="116" y="752" type="qcurve"/>
      <point x="116" y="752"/>
      <point x="115" y="752" type="qcurve"/>
      <point x="115" y="752"/>
      <point x="115" y="752" type="qcurve"/>
      <point x="115" y="752"/>
      <point x="114" y="752" type="qcurve"/>
      <point x="114" y="752"/>
      <point x="114" y="752" type="qcurve"/>
      <point x="111" y="752" type="line"/>
      <point x="111" y="752"/>
      <point x="110" y="752" type="qcurve"/>
      <point x="109" y="752" type="line"/>
      <point x="103" y="752"/>
      <point x="89" y="744"/>
      <point x="76" y="727"/>
      <point x="72" y="710" type="qcurve"/>
      <point x="20" y="723" type="line"/>
      <point x="42" y="807" type="line"/>
      <point x="42" y="808"/>
      <point x="52" y="833"/>
      <point x="76" y="862"/>
      <point x="116" y="884"/>
      <point x="146" y="884" type="qcurve"/>
      <point x="148" y="884"/>
      <point x="151" y="884" type="qcurve" smooth="yes"/>
      <point x="159" y="884"/>
      <point x="176" y="883"/>
      <point x="186" y="879" type="qcurve"/>
    </contour>
  </outline>
</glyph>
<glyph name="hungarumlaut" format="2">
  <advance width="612"/>
  <unicode hex="02DD"/>
  <outline>
    <contour>
      <point x="32" y="770" type="line"/>
      <point x="60" y="792"/>
      <point x="115" y="835"/>
      <point x="164" y="871"/>
      <point x="204" y="898"/>
      <point x="218" y="905" type="qcurve"/>
      <point x="238" y="876"/>
      <point x="268" y="814"/>
      <point x="276" y="779" type="qcurve"/>
      <point x="257" y="769"/>
      <point x="143" y="726"/>
      <point x="58" y="708" type="qcurve"/>
    </contour>
    <contour>
      <point x="338" y="770" type="line"/>
      <point x="366" y="792"/>
      <point x="421" y="835"/>
      <point x="470" y="871"/>
      <point x="510" y="898"/>
      <point x="524" y="905" type="qcurve"/>
      <point x="544" y="876"/>
      <point x="574" y="814"/>
      <point x="582" y="779" type="qcurve"/>
      <point x="563" y="769"/>
      <point x="449" y="726"/>
      <point x="364" y="708" type="qcurve"/>
    </contour>
  </outline>
</glyph>
<glyph name="uni0326" format="2">
  <advance width="335"/>
  <unicode hex="0326"/>
  <outline>
    <contour>
      <point x="262" y="105" type="qcurve"/>
      <point x="269" y="81"/>
      <point x="269" y="58" type="qcurve" smooth="yes"/>
      <point x="269" y="40"/>
      <point x="256" y="-17"/>
      <point x="241" y="-48" type="qcurve" smooth="yes"/>
      <point x="223" y="-85"/>
      <point x="196" y="-117" type="qcurve"/>
      <point x="116" y="-90" type="line"/>
      <point x="142" y="-59" type="line"/>
      <point x="142" y="-56"/>
      <point x="142" y="-53" type="qcurve" smooth="yes"/>
      <point x="142" y="-40"/>
      <point x="133" y="-13"/>
      <point x="125" y="-2" type="qcurve" smooth="yes"/>
      <point x="116" y="10"/>
      <point x="105" y="20" type="qcurve" smooth="yes"/>
      <point x="88" y="34"/>
      <point x="67" y="74"/>
      <point x="67" y="97" type="qcurve" smooth="yes"/>
      <point x="67" y="138"/>
      <point x="123" y="195"/>
      <point x="164" y="195" type="qcurve" smooth="yes"/>
      <point x="183" y="195"/>
      <point x="217" y="181"/>
      <point x="244" y="157"/>
      <point x="260" y="124"/>
    </contour>
  </outline>
</glyph>
<glyph name="Germandbls" format="2">
  <advance width="878"/>
  <unicode hex="1E9E"/>
  <outline>
    <contour>
      <point x="34" y="669" type="line"/>
      <point x="852" y="669" type="line"/>
      <point x="852" y="428" type="line" smooth="yes"/>
      <point x="852" y="403"/>
      <point x="844" y="376" type="qcurve"/>
      <point x="809" y="422"/>
      <point x="724" y="465"/>
      <point x="666" y="465" type="qcurve"/>
      <point x="666" y="483" type="line"/>
      <point x="220" y="483" type="line"/>
      <point x="220" y="0" type="line"/>
      <point x="34" y="0" type="line"/>
    </contour>
    <contour>
      <point x="666" y="186" type="line"/>
      <point x="666" y="242" type="line"/>
      <point x="260" y="242" type="line"/>
      <point x="260" y="428" type="line"/>
      <point x="666" y="428" type="line" smooth="yes"/>
      <point x="711" y="428"/>
      <point x="780" y="395"/>
      <point x="827" y="339"/>
      <point x="852" y="265"/>
      <point x="852" y="223" type="qcurve" smooth="yes"/>
      <point x="852" y="179"/>
      <point x="831" y="98"/>
      <point x="786" y="37"/>
      <point x="716" y="0"/>
      <point x="666" y="0" type="qcurve" smooth="yes"/>
      <point x="260" y="0" type="line"/>
      <point x="260" y="186" type="line"/>
    </contour>
  </outline>
</glyph>
<glyph name="endash" format="2">
  <advance width="693"/>
  <unicode hex="2013"/>
  <outline>
    <contour>
      <point x="654" y="229" type="line"/>
      <point x="32" y="229" type="line"/>
      <point x="32" y="415" type="line"/>
      <point x="654" y="415" type="line"/>
    </contour>
  </outline>
</glyph>
<glyph name="emdash" format="2">
  <advance width="889"/>
  <unicode hex="2014"/>
  <outline>
    <contour>
      <point x="855" y="229" type="line"/>
      <point x="32" y="229" type="line"/>
      <point x="32" y="415" type="line"/>
      <point x="855" y="415" type="line"/>
    </contour>
  </outline>
</glyph>
<glyph name="quoteleft" format="2">
  <advance width="273"/>
  <unicode hex="2018"/>
  <outline>
    <contour>
      <point x="39" y="446" type="qcurve"/>
      <point x="32" y="471"/>
      <point x="32" y="494" type="qcurve" smooth="yes"/>
      <point x="32" y="511"/>
      <point x="44" y="567"/>
      <point x="60" y="599" type="qcurve" smooth="yes"/>
      <point x="78" y="635"/>
      <point x="105" y="668" type="qcurve"/>
      <point x="185" y="641" type="line"/>
      <point x="159" y="610" type="line"/>
      <point x="158" y="605"/>
      <point x="158" y="601" type="qcurve" smooth="yes"/>
      <point x="158" y="589"/>
      <point x="168" y="564"/>
      <point x="176" y="553" type="qcurve" smooth="yes"/>
      <point x="185" y="541"/>
      <point x="196" y="531" type="qcurve" smooth="yes"/>
      <point x="213" y="517"/>
      <point x="234" y="477"/>
      <point x="234" y="454" type="qcurve" smooth="yes"/>
      <point x="234" y="413"/>
      <point x="178" y="356"/>
      <point x="137" y="356" type="qcurve" smooth="yes"/>
      <point x="118" y="356"/>
      <point x="84" y="370"/>
      <point x="57" y="394"/>
      <point x="40" y="427"/>
    </contour>
  </outline>
</glyph>
<glyph name="quoteright" format="2">
  <advance width="265"/>
  <unicode hex="2019"/>
  <outline>
    <contour>
      <point x="233" y="578" type="qcurve"/>
      <point x="240" y="554"/>
      <point x="240" y="531" type="qcurve" smooth="yes"/>
      <point x="240" y="513"/>
      <point x="227" y="456"/>
      <point x="212" y="425" type="qcurve" smooth="yes"/>
      <point x="194" y="388"/>
      <point x="167" y="356" type="qcurve"/>
      <point x="87" y="383" type="line"/>
      <point x="113" y="414" type="line"/>
      <point x="113" y="417"/>
      <point x="113" y="420" type="qcurve" smooth="yes"/>
      <point x="113" y="433"/>
      <point x="104" y="460"/>
      <point x="96" y="471" type="qcurve" smooth="yes"/>
      <point x="87" y="483"/>
      <point x="76" y="493" type="qcurve" smooth="yes"/>
      <point x="59" y="507"/>
      <point x="38" y="547"/>
      <point x="38" y="570" type="qcurve" smooth="yes"/>
      <point x="38" y="611"/>
      <point x="94" y="668"/>
      <point x="135" y="668" type="qcurve" smooth="yes"/>
      <point x="154" y="668"/>
      <point x="188" y="654"/>
      <point x="215" y="630"/>
      <point x="231" y="597"/>
    </contour>
  </outline>
</glyph>
<glyph name="quotesinglbase" format="2">
  <advance width="277"/>
  <unicode hex="201A"/>
  <outline>
    <contour>
      <point x="236" y="105" type="qcurve"/>
      <point x="243" y="81"/>
      <point x="243" y="58" type="qcurve" smooth="yes"/>
      <point x="243" y="40"/>
      <point x="230" y="-17"/>
      <point x="215" y="-48" type="qcurve" smooth="yes"/>
      <point x="197" y="-85"/>
      <point x="170" y="-117" type="qcurve"/>
      <point x="90" y="-90" type="line"/>
      <point x="116" y="-59" type="line"/>
      <point x="116" y="-56"/>
      <point x="116" y="-53" type="qcurve" smooth="yes"/>
      <point x="116" y="-40"/>
      <point x="107" y="-13"/>
      <point x="99" y="-2" type="qcurve" smooth="yes"/>
      <point x="90" y="10"/>
      <point x="79" y="20" type="qcurve" smooth="yes"/>
      <point x="62" y="34"/>
      <point x="41" y="74"/>
      <point x="41" y="97" type="qcurve" smooth="yes"/>
      <point x="41" y="138"/>
      <point x="97" y="195"/>
      <point x="138" y="195" type="qcurve" smooth="yes"/>
      <point x="157" y="195"/>
      <point x="191" y="181"/>
      <point x="218" y="157"/>
      <point x="234" y="124"/>
    </contour>
  </outline>
</glyph>
<glyph name="quotedblleft" format="2">
  <advance width="496"/>
  <unicode hex="201C"/>
  <outline>
    <contour>
      <point x="39" y="446" type="qcurve"/>
      <point x="32" y="471"/>
      <point x="32" y="494" type="qcurve" smooth="yes"/>
      <point x="32" y="511"/>
      <point x="44" y="567"/>
      <point x="60" y="599" type="qcurve" smooth="yes"/>
      <point x="78" y="635"/>
      <point x="105" y="668" type="qcurve"/>
      <point x="185" y="641" type="line"/>
      <point x="159" y="610" type="line"/>
      <point x="158" y="605"/>
      <point x="158" y="601" type="qcurve" smooth="yes"/>
      <point x="158" y="589"/>
      <point x="168" y="564"/>
      <point x="176" y="553" type="qcurve" smooth="yes"/>
      <point x="185" y="541"/>
      <point x="196" y="531" type="qcurve" smooth="yes"/>
      <point x="213" y="517"/>
      <point x="234" y="477"/>
      <point x="234" y="454" type="qcurve" smooth="yes"/>
      <point x="234" y="413"/>
      <point x="178" y="356"/>
      <point x="137" y="356" type="qcurve" smooth="yes"/>
      <point x="118" y="356"/>
      <point x="84" y="370"/>
      <point x="57" y="394"/>
      <point x="40" y="427"/>
    </contour>
    <contour>
      <point x="266" y="446" type="qcurve"/>
      <point x="259" y="471"/>
      <point x="259" y="494" type="qcurve" smooth="yes"/>
      <point x="259" y="511"/>
      <point x="271" y="567"/>
      <point x="287" y="599" type="qcurve" smooth="yes"/>
      <point x="305" y="635"/>
      <point x="332" y="668" type="qcurve"/>
      <point x="412" y="641" type="line"/>
      <point x="386" y="610" type="line"/>
      <point x="385" y="605"/>
      <point x="385" y="601" type="qcurve" smooth="yes"/>
      <point x="385" y="589"/>
      <point x="395" y="564"/>
      <point x="403" y="553" type="qcurve" smooth="yes"/>
      <point x="412" y="541"/>
      <point x="423" y="531" type="qcurve" smooth="yes"/>
      <point x="440" y="517"/>
      <point x="461" y="477"/>
      <point x="461" y="454" type="qcurve" smooth="yes"/>
      <point x="461" y="413"/>
      <point x="405" y="356"/>
      <point x="364" y="356" type="qcurve" smooth="yes"/>
      <point x="345" y="356"/>
      <point x="311" y="370"/>
      <point x="284" y="394"/>
      <point x="267" y="427"/>
    </contour>
  </outline>
</glyph>
<glyph name="quotedblright" format="2">
  <advance width="496"/>
  <unicode hex="201D"/>
  <outline>
    <contour>
      <point x="454" y="578" type="qcurve"/>
      <point x="461" y="554"/>
      <point x="461" y="531" type="qcurve" smooth="yes"/>
      <point x="461" y="513"/>
      <point x="448" y="456"/>
      <point x="433" y="425" type="qcurve" smooth="yes"/>
      <point x="415" y="388"/>
      <point x="388" y="356" type="qcurve"/>
      <point x="308" y="383" type="line"/>
      <point x="334" y="414" type="line"/>
      <point x="334" y="417"/>
      <point x="334" y="420" type="qcurve" smooth="yes"/>
      <point x="334" y="433"/>
      <point x="325" y="460"/>
      <point x="317" y="471" type="qcurve" smooth="yes"/>
      <point x="308" y="483"/>
      <point x="297" y="493" type="qcurve" smooth="yes"/>
      <point x="280" y="507"/>
      <point x="259" y="547"/>
      <point x="259" y="570" type="qcurve" smooth="yes"/>
      <point x="259" y="611"/>
      <point x="315" y="668"/>
      <point x="356" y="668" type="qcurve" smooth="yes"/>
      <point x="375" y="668"/>
      <point x="409" y="654"/>
      <point x="436" y="630"/>
      <point x="452" y="597"/>
    </contour>
    <contour>
      <point x="227" y="578" type="qcurve"/>
      <point x="234" y="554"/>
      <point x="234" y="531" type="qcurve" smooth="yes"/>
      <point x="234" y="513"/>
      <point x="221" y="456"/>
      <point x="206" y="425" type="qcurve" smooth="yes"/>
      <point x="188" y="388"/>
      <point x="161" y="356" type="qcurve"/>
      <point x="81" y="383" type="line"/>
      <point x="107" y="414" type="line"/>
      <point x="107" y="417"/>
      <point x="107" y="420" type="qcurve" smooth="yes"/>
      <point x="107" y="433"/>
      <point x="98" y="460"/>
      <point x="90" y="471" type="qcurve" smooth="yes"/>
      <point x="81" y="483"/>
      <point x="70" y="493" type="qcurve" smooth="yes"/>
      <point x="53" y="507"/>
      <point x="32" y="547"/>
      <point x="32" y="570" type="qcurve" smooth="yes"/>
      <point x="32" y="611"/>
      <point x="88" y="668"/>
      <point x="129" y="668" type="qcurve" smooth="yes"/>
      <point x="148" y="668"/>
      <point x="182" y="654"/>
      <point x="209" y="630"/>
      <point x="225" y="597"/>
    </contour>
  </outline>
</glyph>
<glyph name="quotedblbase" format="2">
  <advance width="488"/>
  <unicode hex="201E"/>
  <outline>
    <contour>
      <point x="236" y="105" type="qcurve"/>
      <point x="243" y="81"/>
      <point x="243" y="58" type="qcurve" smooth="yes"/>
      <point x="243" y="40"/>
      <point x="230" y="-17"/>
      <point x="215" y="-48" type="qcurve" smooth="yes"/>
      <point x="197" y="-85"/>
      <point x="170" y="-117" type="qcurve"/>
      <point x="90" y="-90" type="line"/>
      <point x="116" y="-59" type="line"/>
      <point x="116" y="-56"/>
      <point x="116" y="-53" type="qcurve" smooth="yes"/>
      <point x="116" y="-40"/>
      <point x="107" y="-13"/>
      <point x="99" y="-2" type="qcurve" smooth="yes"/>
      <point x="90" y="10"/>
      <point x="79" y="20" type="qcurve" smooth="yes"/>
      <point x="62" y="34"/>
      <point x="41" y="74"/>
      <point x="41" y="97" type="qcurve" smooth="yes"/>
      <point x="41" y="138"/>
      <point x="97" y="195"/>
      <point x="138" y="195" type="qcurve" smooth="yes"/>
      <point x="157" y="195"/>
      <point x="191" y="181"/>
      <point x="218" y="157"/>
      <point x="234" y="124"/>
    </contour>
    <contour>
      <point x="454" y="105" type="qcurve"/>
      <point x="461" y="81"/>
      <point x="461" y="58" type="qcurve" smooth="yes"/>
      <point x="461" y="40"/>
      <point x="448" y="-17"/>
      <point x="433" y="-48" type="qcurve" smooth="yes"/>
      <point x="415" y="-85"/>
      <point x="388" y="-117" type="qcurve"/>
      <point x="308" y="-90" type="line"/>
      <point x="334" y="-59" type="line"/>
      <point x="334" y="-56"/>
      <point x="334" y="-53" type="qcurve" smooth="yes"/>
      <point x="334" y="-40"/>
      <point x="325" y="-13"/>
      <point x="317" y="-2" type="qcurve" smooth="yes"/>
      <point x="308" y="10"/>
      <point x="297" y="20" type="qcurve" smooth="yes"/>
      <point x="280" y="34"/>
      <point x="259" y="74"/>
      <point x="259" y="97" type="qcurve" smooth="yes"/>
      <point x="259" y="138"/>
      <point x="315" y="195"/>
      <point x="356" y="195" type="qcurve" smooth="yes"/>
      <point x="375" y="195"/>
      <point x="409" y="181"/>
      <point x="436" y="157"/>
      <point x="452" y="124"/>
    </contour>
  </outline>
</glyph>
<glyph name="dagger" format="2">
  <advance width="576"/>
  <unicode hex="2020"/>
  <outline>
    <contour>
      <point x="536" y="229" type="line"/>
      <point x="377" y="229" type="line"/>
      <point x="377" y="-132" type="line"/>
      <point x="191" y="-132" type="line"/>
      <point x="191" y="229" type="line"/>
      <point x="34" y="229" type="line"/>
      <point x="34" y="415" type="line"/>
      <point x="191" y="415" type="line"/>
      <point x="191" y="791" type="line"/>
      <point x="377" y="791" type="line"/>
      <point x="377" y="415" type="line"/>
      <point x="536" y="415" type="line"/>
    </contour>
  </outline>
</glyph>
<glyph name="daggerdbl" format="2">
  <advance width="971"/>
  <unicode hex="2021"/>
  <outline>
    <contour>
      <point x="948" y="97" type="line"/>
      <point x="581" y="97" type="line"/>
      <point x="581" y="-132" type="line"/>
      <point x="395" y="-132" type="line"/>
      <point x="395" y="97" type="line"/>
      <point x="30" y="97" type="line"/>
      <point x="30" y="283" type="line"/>
      <point x="395" y="283" type="line"/>
      <point x="395" y="373" type="line"/>
      <point x="30" y="373" type="line"/>
      <point x="30" y="559" type="line"/>
      <point x="395" y="559" type="line"/>
      <point x="395" y="791" type="line"/>
      <point x="581" y="791" type="line"/>
      <point x="581" y="559" type="line"/>
      <point x="948" y="559" type="line"/>
      <point x="948" y="373" type="line"/>
      <point x="581" y="373" type="line"/>
      <point x="581" y="283" type="line"/>
      <point x="948" y="283" type="line"/>
    </contour>
  </outline>
</glyph>
<glyph name="bullet" format="2">
  <advance width="331"/>
  <unicode hex="2022"/>
  <outline>
    <contour>
      <point x="37" y="343" type="qcurve" smooth="yes"/>
      <point x="37" y="370"/>
      <point x="57" y="417"/>
      <point x="93" y="453"/>
      <point x="140" y="473"/>
      <point x="167" y="473" type="qcurve" smooth="yes"/>
      <point x="194" y="473"/>
      <point x="241" y="453"/>
      <point x="277" y="417"/>
      <point x="297" y="370"/>
      <point x="297" y="343" type="qcurve" smooth="yes"/>
      <point x="297" y="316"/>
      <point x="277" y="269"/>
      <point x="241" y="233"/>
      <point x="194" y="213"/>
      <point x="167" y="213" type="qcurve" smooth="yes"/>
      <point x="140" y="213"/>
      <point x="93" y="233"/>
      <point x="57" y="269"/>
      <point x="37" y="316"/>
    </contour>
  </outline>
</glyph>
<glyph name="ellipsis" format="2">
  <advance width="828"/>
  <unicode hex="2026"/>
  <outline>
    <contour>
      <point x="41" y="97" type="qcurve" smooth="yes"/>
      <point x="41" y="138"/>
      <point x="97" y="195"/>
      <point x="138" y="195" type="qcurve" smooth="yes"/>
      <point x="179" y="195"/>
      <point x="236" y="138"/>
      <point x="236" y="97" type="qcurve" smooth="yes"/>
      <point x="236" y="56"/>
      <point x="179" y="0"/>
      <point x="138" y="0" type="qcurve" smooth="yes"/>
      <point x="97" y="0"/>
      <point x="41" y="56"/>
    </contour>
    <contour>
      <point x="317" y="97" type="qcurve" smooth="yes"/>
      <point x="317" y="138"/>
      <point x="373" y="195"/>
      <point x="414" y="195" type="qcurve" smooth="yes"/>
      <point x="455" y="195"/>
      <point x="512" y="138"/>
      <point x="512" y="97" type="qcurve" smooth="yes"/>
      <point x="512" y="56"/>
      <point x="455" y="0"/>
      <point x="414" y="0" type="qcurve" smooth="yes"/>
      <point x="373" y="0"/>
      <point x="317" y="56"/>
    </contour>
    <contour>
      <point x="593" y="97" type="qcurve" smooth="yes"/>
      <point x="593" y="138"/>
      <point x="649" y="195"/>
      <point x="690" y="195" type="qcurve" smooth="yes"/>
      <point x="731" y="195"/>
      <point x="788" y="138"/>
      <point x="788" y="97" type="qcurve" smooth="yes"/>
      <point x="788" y="56"/>
      <point x="731" y="0"/>
      <point x="690" y="0" type="qcurve" smooth="yes"/>
      <point x="649" y="0"/>
      <point x="593" y="56"/>
    </contour>
  </outline>
</glyph>
<glyph name="guilsinglleft" format="2">
  <advance width="260"/>
  <unicode hex="2039"/>
  <outline>
    <contour>
      <point x="178" y="0" type="line"/>
      <point x="156" y="28"/>
      <point x="114" y="82"/>
      <point x="78" y="130"/>
      <point x="51" y="170"/>
      <point x="44" y="184" type="qcurve"/>
      <point x="43" y="184" type="line"/>
      <point x="44" y="185" type="line"/>
      <point x="43" y="185" type="line"/>
      <point x="58" y="213"/>
      <point x="133" y="313"/>
      <point x="178" y="370" type="qcurve"/>
      <point x="240" y="344" type="line"/>
      <point x="230" y="295"/>
      <point x="206" y="214"/>
      <point x="195" y="185" type="qcurve"/>
      <point x="206" y="156"/>
      <point x="230" y="75"/>
      <point x="240" y="25" type="qcurve"/>
    </contour>
  </outline>
</glyph>
<glyph name="guilsinglright" format="2">
  <advance width="260"/>
  <unicode hex="203A"/>
  <outline>
    <contour>
      <point x="43" y="25" type="line"/>
      <point x="53" y="75"/>
      <point x="77" y="156"/>
      <point x="88" y="185" type="qcurve"/>
      <point x="77" y="214"/>
      <point x="53" y="295"/>
      <point x="43" y="344" type="qcurve"/>
      <point x="105" y="370" type="line"/>
      <point x="150" y="313"/>
      <point x="225" y="213"/>
      <point x="240" y="185" type="qcurve"/>
      <point x="239" y="185" type="line"/>
      <point x="240" y="184" type="line"/>
      <point x="239" y="184" type="line"/>
      <point x="232" y="170"/>
      <point x="205" y="130"/>
      <point x="169" y="82"/>
      <point x="127" y="28"/>
      <point x="105" y="0" type="qcurve"/>
    </contour>
  </outline>
</glyph>
<glyph name="Euro" format="2">
  <advance width="946"/>
  <unicode hex="20AC"/>
  <outline>
    <contour>
      <point x="646" y="360" type="line"/>
      <point x="282" y="360" type="line"/>
      <point x="280" y="347"/>
      <point x="280" y="335" type="qcurve"/>
      <point x="280" y="334"/>
      <point x="280" y="334" type="qcurve"/>
      <point x="280" y="333" type="line"/>
      <point x="280" y="333"/>
      <point x="280" y="333" type="qcurve"/>
      <point x="280" y="332" type="line"/>
      <point x="280" y="332"/>
      <point x="280" y="331" type="qcurve"/>
      <point x="280" y="327" type="line"/>
      <point x="280" y="327"/>
      <point x="280" y="327" type="qcurve"/>
      <point x="280" y="326" type="line"/>
      <point x="280" y="326"/>
      <point x="280" y="325" type="qcurve"/>
      <point x="280" y="316" type="line"/>
      <point x="646" y="316" type="line"/>
      <point x="646" y="242" type="line"/>
      <point x="307" y="242" type="line"/>
      <point x="310" y="238" type="line"/>
      <point x="341" y="207"/>
      <point x="427" y="185"/>
      <point x="475" y="185" type="qcurve" smooth="yes"/>
      <point x="479" y="185"/>
      <point x="535" y="186"/>
      <point x="578" y="186" type="qcurve" smooth="yes"/>
      <point x="912" y="186" type="line"/>
      <point x="912" y="0" type="line"/>
      <point x="429" y="0" type="line" smooth="yes"/>
      <point x="360" y="0"/>
      <point x="238" y="53"/>
      <point x="147" y="144"/>
      <point x="120" y="205" type="qcurve" smooth="yes"/>
      <point x="112" y="223"/>
      <point x="107" y="242" type="qcurve"/>
      <point x="21" y="242" type="line"/>
      <point x="21" y="316" type="line"/>
      <point x="94" y="316" type="line"/>
      <point x="94" y="317" type="line"/>
      <point x="94" y="318"/>
      <point x="94" y="319" type="qcurve"/>
      <point x="94" y="320" type="line"/>
      <point x="94" y="320"/>
      <point x="94" y="321" type="qcurve"/>
      <point x="94" y="322" type="line"/>
      <point x="94" y="322"/>
      <point x="94" y="322" type="qcurve"/>
      <point x="94" y="323" type="line"/>
      <point x="94" y="324"/>
      <point x="94" y="324" type="qcurve"/>
      <point x="94" y="325" type="line"/>
      <point x="94" y="325"/>
      <point x="94" y="325" type="qcurve"/>
      <point x="94" y="332" type="line"/>
      <point x="94" y="332"/>
      <point x="94" y="333" type="qcurve"/>
      <point x="94" y="335" type="line"/>
      <point x="94" y="347"/>
      <point x="95" y="360" type="qcurve"/>
      <point x="21" y="360" type="line"/>
      <point x="21" y="434" type="line"/>
      <point x="109" y="434" type="line"/>
      <point x="114" y="449"/>
      <point x="120" y="465" type="qcurve"/>
      <point x="147" y="526"/>
      <point x="238" y="616"/>
      <point x="360" y="669"/>
      <point x="429" y="669" type="qcurve" smooth="yes"/>
      <point x="912" y="669" type="line"/>
      <point x="912" y="483" type="line"/>
      <point x="429" y="483" type="line" smooth="yes"/>
      <point x="399" y="483"/>
      <point x="345" y="460"/>
      <point x="324" y="439" type="qcurve" smooth="yes"/>
      <point x="319" y="434" type="line"/>
      <point x="646" y="434" type="line"/>
    </contour>
  </outline>
</glyph>
<glyph name="trademark" format="2">
  <advance width="762"/>
  <unicode hex="2122"/>
  <outline>
    <contour>
      <point x="421" y="627" type="line"/>
      <point x="535" y="439" type="line"/>
      <point x="654" y="627" type="line"/>
      <point x="726" y="627" type="line"/>
      <point x="726" y="367" type="line"/>
      <point x="654" y="367" type="line"/>
      <point x="654" y="489" type="line"/>
      <point x="580" y="367" type="line"/>
      <point x="495" y="367" type="line"/>
      <point x="421" y="479" type="line"/>
      <point x="421" y="367" type="line"/>
      <point x="349" y="367" type="line"/>
      <point x="349" y="627" type="line"/>
    </contour>
    <contour>
      <point x="208" y="367" type="line"/>
      <point x="136" y="367" type="line"/>
      <point x="136" y="555" type="line"/>
      <point x="21" y="555" type="line"/>
      <point x="21" y="627" type="line"/>
      <point x="323" y="627" type="line"/>
      <point x="323" y="555" type="line"/>
      <point x="208" y="555" type="line"/>
    </contour>
  </outline>
</glyph>
<glyph name="minus" format="2">
  <advance width="567"/>
  <unicode hex="2212"/>
  <outline>
    <contour>
      <point x="27" y="436" type="line"/>
      <point x="537" y="436" type="line"/>
      <point x="537" y="258" type="line"/>
      <point x="27" y="258" type="line"/>
    </contour>
  </outline>
</glyph>
